<?xml version="1.0" standalone="no"?>
<!DOCTYPE svg PUBLIC "-//W3C//DTD SVG 20010904//EN"
 "http://www.w3.org/TR/2001/REC-SVG-20010904/DTD/svg10.dtd">
<svg version="1.0" xmlns="http://www.w3.org/2000/svg"
 width="2048.000000pt" height="1809.000000pt" viewBox="0 0 2048.000000 1809.000000"
 preserveAspectRatio="xMidYMid meet">

<g transform="translate(0.000000,1809.000000) scale(0.100000,-0.100000)"
fill="#000000" stroke="none">
<path d="M10080 18084 c-30 -2 -140 -8 -245 -14 -487 -28 -911 -70 -1352 -135
-2273 -336 -4260 -1196 -5927 -2564 -657 -539 -1367 -1264 -1902 -1941 -274
-346 -654 -875 -654 -910 0 -14 14 -54 31 -90 17 -36 59 -128 94 -205 34 -77
171 -373 304 -658 209 -449 544 -1181 661 -1447 77 -174 393 -867 550 -1205
89 -192 274 -595 410 -895 136 -300 303 -664 370 -810 151 -327 346 -752 540
-1180 243 -535 403 -884 685 -1495 268 -581 492 -1071 665 -1455 170 -377 386
-851 588 -1290 110 -239 257 -561 327 -715 70 -154 204 -446 298 -650 93 -203
174 -382 179 -398 l10 -27 4620 2 4621 3 54 125 c66 151 136 311 455 1035 61
138 251 567 423 955 172 388 393 885 490 1105 97 220 280 634 407 920 248 559
371 838 493 1115 43 96 128 290 190 430 62 140 156 354 210 475 233 530 292
663 550 1245 711 1604 1267 2861 1390 3140 42 96 92 209 110 250 18 41 59 134
90 205 32 72 160 362 285 645 364 822 380 859 380 873 0 16 -176 290 -301 468
-375 537 -741 999 -1108 1399 -179 196 -698 709 -861 851 -938 820 -1843 1394
-2946 1867 -969 416 -1979 688 -3179 857 -270 38 -637 74 -1040 101 -216 14
-844 26 -965 18z m816 -3308 c927 -95 1750 -378 2513 -863 375 -239 652 -463
982 -792 458 -459 800 -937 1084 -1516 922 -1879 741 -4104 -472 -5813 -360
-507 -823 -972 -1331 -1335 -1151 -823 -2535 -1185 -3952 -1031 -1554 167
-2987 987 -3935 2250 -345 459 -640 1011 -820 1534 -347 1009 -412 2062 -191
3090 202 937 631 1798 1255 2520 351 406 729 739 1176 1035 712 471 1499 770
2345 889 151 22 253 32 505 50 120 9 700 -4 841 -18z"/>
<path d="M10342 14632 l-242 -2 2 -368 3 -367 95 0 95 0 -4 158 -3 157 156 0
156 0 0 73 0 72 -155 -3 -155 -3 0 70 0 71 164 0 c91 0 167 3 169 8 3 4 3 36
0 72 -4 52 -9 66 -22 65 -9 0 -125 -1 -259 -3z"/>
<path d="M9444 14576 c-124 -29 -218 -96 -265 -192 -21 -44 -24 -62 -24 -169
1 -147 21 -207 96 -289 83 -91 190 -127 320 -107 154 24 244 83 300 196 56
114 48 273 -19 398 -72 135 -239 201 -408 163z m157 -159 c68 -46 109 -141
109 -256 0 -142 -86 -221 -215 -197 -42 8 -98 61 -120 113 -40 94 -38 236 4
293 52 71 154 93 222 47z"/>
<path d="M11266 14558 c-14 -41 -156 -701 -152 -706 5 -5 154 -41 172 -42 6 0
21 50 34 110 12 61 26 112 29 115 4 2 36 -3 72 -11 97 -24 184 -22 244 5 67
30 92 55 126 126 35 73 38 140 8 201 -40 83 -112 120 -329 169 -91 20 -173 39
-183 41 -9 3 -19 -1 -21 -8z m258 -189 c82 -22 117 -90 80 -160 -23 -46 -68
-60 -145 -48 -35 6 -67 14 -72 18 -4 4 3 54 15 110 l22 103 30 -6 c16 -4 48
-11 70 -17z"/>
<path d="M12069 14333 c-6 -16 -40 -104 -76 -198 -36 -93 -74 -197 -85 -230
-34 -105 -10 -206 67 -273 114 -100 321 -146 421 -94 78 40 104 84 203 340 50
130 91 242 91 247 0 11 -160 75 -171 69 -3 -2 -46 -108 -95 -235 -101 -263
-118 -289 -187 -289 -97 1 -165 63 -153 141 3 21 44 138 91 260 47 122 84 223
82 225 -8 8 -151 64 -164 64 -7 0 -18 -12 -24 -27z"/>
<path d="M8223 14217 c-161 -67 -293 -126 -292 -132 0 -5 13 -36 27 -67 l27
-57 94 40 c51 21 99 39 106 39 14 0 22 -19 150 -335 42 -104 80 -193 83 -197
7 -7 150 47 166 62 9 9 -6 48 -145 388 -33 78 -59 148 -59 155 0 6 43 29 95
51 53 21 98 42 100 47 7 11 -38 122 -50 125 -6 1 -142 -53 -302 -119z"/>
<path d="M12770 13679 c-96 -171 -176 -317 -178 -323 -3 -13 304 -187 371
-210 92 -31 181 -17 240 38 34 32 67 100 67 141 0 33 -31 108 -49 119 -20 13
-11 23 24 29 107 17 172 126 131 220 -23 54 -84 101 -259 201 -93 53 -169 96
-170 96 -1 0 -81 -140 -177 -311z m329 69 c90 -53 109 -92 70 -142 -26 -33
-58 -33 -124 -2 -82 40 -80 36 -40 104 20 34 41 62 47 62 6 0 27 -10 47 -22z
m-115 -261 c38 -23 78 -54 89 -68 17 -23 18 -31 7 -63 -13 -42 -43 -66 -81
-66 -23 0 -149 59 -172 80 -8 7 72 160 83 160 3 0 36 -20 74 -43z"/>
<path d="M7627 13935 c-37 -25 -67 -47 -67 -49 0 -3 47 -78 105 -168 58 -89
102 -164 98 -165 -5 -2 -102 40 -217 92 -115 53 -214 94 -220 92 -7 -3 -51
-30 -99 -61 l-87 -56 53 -83 c30 -45 116 -179 192 -297 76 -118 143 -220 149
-227 8 -9 27 -2 79 33 37 24 67 48 67 53 0 5 -54 93 -121 196 -66 103 -123
194 -126 201 -6 16 29 1 278 -119 258 -124 232 -119 317 -62 40 26 72 50 72
51 0 9 -394 614 -399 614 -4 0 -37 -20 -74 -45z"/>
<path d="M10095 13644 c-1385 -91 -2621 -768 -3432 -1879 -315 -433 -573 -975
-712 -1497 -160 -601 -193 -1267 -95 -1893 144 -921 585 -1792 1247 -2464 737
-747 1632 -1191 2692 -1333 152 -20 210 -23 555 -23 417 1 544 11 853 71 1280
247 2377 1011 3049 2125 341 566 541 1156 625 1849 22 182 25 759 5 945 -101
938 -450 1764 -1051 2485 -124 149 -405 430 -551 551 -718 595 -1542 944
-2460 1044 -139 15 -600 27 -725 19z m770 -169 c1693 -200 3119 -1357 3665
-2975 216 -637 281 -1352 184 -2030 -181 -1271 -913 -2403 -2004 -3098 -567
-361 -1185 -575 -1915 -664 -149 -18 -731 -18 -880 0 -205 25 -368 52 -530 88
-829 185 -1591 610 -2186 1220 -950 975 -1391 2299 -1218 3654 104 815 449
1606 980 2245 111 134 368 395 503 512 675 582 1496 945 2371 1048 291 35 740
35 1030 0z"/>
<path d="M10025 13334 c-198 -18 -372 -33 -387 -33 -22 -1 -28 -6 -28 -23 0
-37 14 -50 44 -42 36 9 93 -3 100 -22 3 -8 17 -148 32 -311 29 -337 32 -322
-55 -331 -50 -4 -51 -5 -51 -39 l0 -34 53 6 c28 3 153 14 276 25 123 11 226
21 228 23 2 3 1 16 -3 31 -6 24 -10 26 -58 26 -80 0 -83 6 -97 153 -6 70 -9
130 -6 133 3 4 28 3 56 -1 73 -10 112 -40 135 -103 16 -46 22 -52 47 -52 15 0
30 3 32 8 5 7 -30 413 -35 417 -2 2 -17 0 -34 -2 -28 -4 -32 -9 -37 -46 -9
-69 -60 -115 -143 -130 l-32 -6 -6 57 c-3 31 -8 91 -12 133 l-7 77 88 7 c178
15 244 -6 285 -92 23 -48 28 -53 59 -53 l34 0 -7 73 c-4 39 -9 98 -13 130 l-6
57 -46 -1 c-25 -1 -208 -16 -406 -35z"/>
<path d="M11096 13275 c-8 -30 -1 -45 21 -45 24 0 81 -30 87 -46 8 -20 -154
-582 -172 -601 -10 -10 -25 -13 -44 -9 -93 20 -87 20 -94 -8 -3 -15 -4 -29 -2
-32 5 -5 819 -240 852 -246 15 -2 29 22 78 131 32 74 57 139 54 146 -2 7 -16
15 -30 17 -21 4 -32 -3 -63 -40 -20 -24 -57 -57 -81 -73 -66 -42 -110 -45
-225 -14 -108 28 -157 49 -157 68 0 32 156 552 171 570 17 22 18 22 78 6 l60
-16 11 30 c5 17 9 31 8 33 -3 2 -474 138 -519 149 -23 6 -27 3 -33 -20z"/>
<path d="M8935 13120 c-219 -58 -365 -159 -442 -307 -65 -123 -67 -223 -7
-343 96 -190 329 -262 584 -179 276 90 440 282 428 499 -15 258 -271 408 -563
330z m97 -116 c78 -40 166 -189 194 -328 28 -136 -9 -226 -115 -274 -66 -31
-140 -34 -188 -9 -81 43 -167 175 -197 307 -19 78 -20 125 -5 171 42 123 199
191 311 133z"/>
<path d="M12342 12480 c-304 -155 -358 -180 -398 -180 -25 0 -55 5 -66 11 -18
9 -24 8 -35 -7 -7 -10 -13 -23 -13 -30 0 -10 260 -187 294 -200 7 -3 18 7 26
21 13 24 11 27 -29 61 -54 47 -52 69 12 106 l49 29 134 -87 c131 -85 134 -88
134 -123 0 -65 -12 -111 -27 -111 -9 0 -33 10 -54 22 -38 21 -39 21 -54 2 -8
-10 -14 -23 -14 -29 -1 -5 83 -64 186 -130 103 -66 199 -128 214 -138 28 -18
28 -18 44 7 17 25 16 27 -14 61 -38 44 -38 37 -10 477 23 377 23 412 -6 415
-11 2 -179 -78 -373 -177z m123 -152 c-4 -57 -8 -104 -10 -106 -1 -2 -42 22
-90 53 -48 31 -85 58 -83 60 8 8 174 95 182 95 4 0 5 -46 1 -102z"/>
<path d="M7642 12404 l-123 -117 22 -23 22 -24 40 30 c48 35 53 36 62 13 9
-25 46 -336 40 -342 -8 -7 -337 57 -349 69 -7 7 0 20 19 40 28 29 28 30 10 50
-10 11 -22 20 -27 20 -5 0 -89 -78 -188 -172 l-180 -173 24 -24 24 -24 33 28
c39 32 34 33 344 -25 l210 -40 73 -74 c39 -40 72 -81 72 -90 0 -9 -20 -39 -45
-65 l-45 -48 19 -24 19 -24 64 60 c231 217 359 347 356 362 -2 9 -11 21 -20
26 -13 9 -25 3 -62 -31 -25 -23 -54 -42 -63 -42 -10 0 -55 37 -100 83 l-82 82
-26 232 c-14 127 -23 244 -19 260 4 15 16 41 27 56 18 27 18 29 2 48 -10 10
-21 19 -24 19 -3 0 -61 -53 -129 -116z"/>
<path d="M10205 12413 c-1133 -56 -2140 -660 -2714 -1631 -229 -387 -373 -811
-437 -1287 -24 -183 -25 -621 -1 -795 57 -414 163 -763 337 -1105 167 -331
372 -608 648 -876 252 -246 506 -427 817 -584 342 -173 637 -267 1020 -326
178 -27 603 -38 782 -20 938 95 1765 551 2328 1286 353 460 580 1005 660 1585
22 158 31 554 16 716 -55 607 -255 1150 -603 1642 -436 615 -1074 1067 -1795
1271 -240 68 -452 103 -718 121 -152 9 -202 10 -340 3z m450 -157 c28 -3 94
-12 147 -21 54 -8 101 -14 105 -13 5 0 15 -1 23 -5 8 -3 51 -13 95 -22 187
-38 469 -129 570 -184 22 -11 45 -21 51 -21 20 0 295 -143 322 -167 7 -7 18
-13 23 -13 6 0 25 -11 43 -25 18 -14 38 -25 43 -25 6 0 14 -7 17 -16 3 -8 10
-12 16 -9 5 3 10 1 10 -4 0 -6 7 -11 15 -11 8 0 15 -4 15 -10 0 -7 -607 -10
-1800 -10 -1193 0 -1800 3 -1800 10 0 6 7 10 15 10 8 0 15 5 15 10 0 6 7 10
15 10 8 0 15 5 15 10 0 6 6 10 13 10 10 0 76 40 112 67 6 5 26 16 45 25 19 10
71 37 115 60 106 57 312 148 345 153 3 0 10 4 16 8 24 15 304 96 404 117 58
12 112 25 120 28 8 3 18 5 21 4 3 0 48 6 100 14 52 9 112 15 134 15 22 -1 46
3 52 7 13 8 481 6 568 -2z m-180 -667 c60 -23 200 -75 310 -116 110 -42 253
-95 319 -119 65 -24 124 -48 130 -53 12 -10 191 -81 286 -114 25 -9 135 -50
245 -92 110 -42 297 -112 415 -156 118 -44 249 -93 290 -109 196 -75 259 -98
307 -115 35 -13 53 -25 57 -39 7 -27 8 -251 0 -258 -3 -3 -17 0 -32 7 -15 7
-43 19 -62 28 -40 16 -186 81 -245 108 -41 18 -353 153 -545 236 -101 43 -244
105 -285 123 -71 32 -152 67 -230 100 -49 21 -184 79 -300 130 -115 50 -257
112 -315 137 -58 25 -130 56 -160 70 -30 14 -84 38 -120 53 -36 14 -93 39
-127 55 l-63 28 0 69 c0 37 3 68 7 68 5 0 57 -18 118 -41z m660 29 c-16 -6
-87 -11 -157 -12 -69 0 -130 -4 -134 -8 -13 -14 -24 -8 -24 12 0 19 6 20 173
19 133 -1 165 -3 142 -11z m1045 -66 l0 -79 -30 5 c-18 2 -40 -2 -55 -12 -31
-20 -41 -20 -90 4 -52 25 -96 25 -147 0 -56 -27 -71 -26 -62 3 25 72 -1 111
-56 83 -43 -21 -53 -20 -65 6 -7 14 -27 28 -59 37 -45 14 -54 14 -135 -7 -47
-12 -92 -22 -99 -22 -7 0 -26 14 -44 30 l-31 30 437 0 436 0 0 -78z m110 54
c0 5 7 -2 16 -14 8 -12 19 -22 25 -22 10 0 32 -18 88 -72 21 -21 41 -38 44
-38 4 0 63 -57 132 -127 164 -169 185 -191 185 -198 0 -3 10 -16 23 -29 12
-13 30 -33 39 -45 l18 -21 -299 0 c-277 0 -300 1 -305 18 -3 9 -5 142 -5 295
1 273 1 278 20 261 10 -9 19 -13 19 -8z m-3030 -4 c0 -4 -30 -26 -67 -50 l-68
-43 -100 8 c-55 4 -118 8 -140 8 l-40 0 -46 -94 c-51 -104 -64 -117 -126 -133
-25 -6 -45 -17 -48 -28 -16 -50 -86 -140 -124 -160 l-41 -20 0 249 c0 228 2
251 18 260 20 12 782 15 782 3z m309 -7 c-75 -15 -139 -44 -187 -86 -35 -31
-60 -34 -171 -21 l-54 7 89 57 89 58 150 -1 150 -1 -66 -13z m629 -8 c22 -23
22 -24 4 -41 -11 -9 -54 -27 -97 -39 -123 -35 -126 -73 -6 -98 126 -26 131
-28 131 -55 0 -13 7 -41 16 -62 15 -35 29 -130 40 -274 5 -58 3 -68 -10 -68
-12 0 -16 11 -16 44 0 32 -20 90 -71 212 -39 93 -74 172 -77 176 -4 4 -47 9
-97 13 -157 11 -143 3 -202 108 -29 52 -53 97 -53 100 0 4 94 7 208 7 205 0
209 0 230 -23z m82 -139 c0 -156 -9 -191 -25 -96 -8 44 -18 53 -70 62 -65 11
-145 36 -145 45 0 5 32 17 71 27 97 25 129 46 129 83 0 20 -6 31 -17 34 -10 3
-1 5 20 6 l37 1 0 -162z m505 132 c0 -34 -24 -36 -93 -9 -87 34 -86 40 8 37
83 -3 85 -4 85 -28z m475 -1 c0 -5 4 -8 10 -4 5 3 17 -1 27 -10 10 -8 27 -22
38 -31 l20 -16 -20 7 c-44 16 -53 16 -66 2 -23 -22 -43 -26 -60 -10 -16 13
-35 20 -92 30 -15 3 -42 -1 -60 -10 -17 -8 -56 -15 -86 -15 -70 -1 -82 -14
-31 -35 29 -11 40 -12 40 -3 0 12 146 40 161 30 17 -10 9 -22 -23 -29 l-33 -8
30 -5 c16 -2 31 1 33 7 5 16 54 13 80 -5 20 -14 24 -13 56 11 22 17 37 22 41
15 4 -6 15 -8 24 -5 10 3 28 -3 41 -13 l22 -18 -26 -17 c-19 -13 -31 -15 -44
-8 -15 10 -15 10 3 11 18 1 18 2 -3 13 -16 7 -26 7 -30 0 -9 -13 -80 -24 -87
-13 -7 12 -45 8 -45 -5 0 -5 -4 -4 -9 4 -6 9 -11 10 -15 2 -4 -6 -18 -8 -31
-5 -13 3 -32 1 -43 -5 -14 -8 -23 -8 -27 -1 -4 6 -12 10 -18 8 -20 -3 -117 25
-117 34 0 5 -4 6 -10 3 -5 -3 -10 -1 -10 5 0 7 -7 10 -15 6 -20 -7 -19 4 3 20
16 13 16 13 0 14 -10 0 -18 7 -18 16 0 14 7 15 37 11 21 -4 39 -11 41 -16 2
-6 12 -7 25 -2 12 5 51 11 87 15 36 4 80 10 99 13 30 5 33 4 27 -12 -5 -14 -2
-16 14 -12 11 3 18 1 14 -4 -6 -10 -2 -11 19 -3 9 3 12 14 9 30 -2 14 0 24 7
24 6 0 11 -5 11 -11z m-2891 -269 c1 -118 -1 -228 -4 -243 l-7 -27 -258 0
-258 0 39 42 c22 24 39 47 39 51 0 5 15 23 33 41 17 18 86 88 152 156 66 68
123 123 127 122 3 -1 21 15 39 36 18 20 36 36 41 35 4 -2 15 8 25 21 l18 24 5
-21 c4 -12 7 -119 9 -237z m1211 251 c0 -5 -12 -14 -27 -19 -16 -6 -54 -22
-85 -36 -32 -14 -58 -22 -58 -18 0 16 96 62 168 81 1 1 2 -3 2 -8z m2007 -7
c13 -4 20 -10 17 -15 -7 -11 -84 -12 -84 -1 0 21 25 27 67 16z m39 -56 c-6 -4
-33 -7 -61 -7 -50 1 -50 1 -16 11 19 5 44 16 55 24 18 13 21 12 27 -3 3 -10 1
-21 -5 -25z m-766 22 c0 -5 -5 -10 -11 -10 -5 0 -7 5 -4 10 3 6 8 10 11 10 2
0 4 -4 4 -10z m648 -5 c-2 -5 -9 -9 -15 -9 -7 1 -13 -4 -13 -12 0 -8 5 -14 12
-14 6 0 9 -3 6 -6 -4 -3 -27 -2 -53 1 -25 4 -43 10 -40 13 3 3 -5 12 -17 19
-18 9 -19 12 -6 13 9 0 20 -4 23 -10 9 -15 51 -12 65 5 14 17 43 17 38 0z
m-1788 -19 c0 -8 -4 -16 -9 -18 -4 -1 -38 -61 -74 -133 -71 -139 -72 -154 -13
-156 29 -1 27 -2 -14 -14 -25 -7 -53 -16 -62 -20 -10 -4 -18 -4 -18 0 0 4 38
86 84 181 76 156 106 202 106 160z m1977 -29 c-1 -5 9 -14 23 -18 29 -8 26
-11 -15 -14 -37 -2 -52 5 -34 16 11 7 11 9 -2 9 -9 0 -19 6 -22 13 -4 10 3 12
24 9 15 -2 27 -9 26 -15z m41 5 c2 -7 -3 -12 -10 -12 -8 0 -15 7 -15 15 0 18
19 15 25 -3z m-155 1 c-7 -2 -21 -2 -30 0 -10 3 -4 5 12 5 17 0 24 -2 18 -5z
m47 -3 c0 -5 -8 -10 -17 -10 -15 0 -16 2 -3 10 19 12 20 12 20 0z m-1244 -24
c10 -8 16 -17 12 -21 -11 -11 -48 5 -48 21 0 18 11 18 36 0z m-1452 -140 l64
-134 53 -6 c30 -3 113 -8 184 -11 72 -3 159 -8 194 -12 l65 -6 -37 -18 c-35
-18 -50 -19 -267 -9 l-230 11 -132 -42 c-72 -22 -137 -43 -145 -46 -7 -3 16
57 51 133 92 201 127 274 132 274 2 0 32 -60 68 -134z m3039 120 c15 -4 25
-11 22 -16 -3 -6 -1 -10 4 -10 6 0 11 -5 11 -11 0 -7 -10 -9 -25 -7 -14 3 -25
1 -25 -3 0 -5 -4 -9 -10 -9 -5 0 -10 9 -10 20 0 13 -5 18 -15 14 -8 -4 -15 -1
-15 5 0 6 -8 8 -17 5 -15 -5 -15 -3 1 10 11 9 27 14 35 12 9 -2 29 -7 44 -10z
m-1513 -16 c8 -5 12 -12 8 -15 -9 -9 -48 4 -48 16 0 12 21 11 40 -1z m1135 -4
c19 -8 35 -16 35 -18 0 -2 -49 -3 -109 -3 -83 0 -107 3 -99 12 20 24 123 30
173 9z m458 -8 c4 -10 7 -10 18 0 16 15 37 16 22 1 -19 -19 -73 -21 -73 -4 0
18 26 20 33 3z m90 5 c2 -5 7 -21 11 -38 l7 -30 -25 30 c-29 35 -32 45 -12 45
8 0 17 -3 19 -7z m-1602 -23 c5 0 9 -9 9 -20 0 -20 -1 -20 -25 -4 -28 18 -34
40 -9 30 9 -3 20 -6 25 -6z m819 -9 c0 -22 -72 -26 -115 -6 -29 13 -27 13 43
14 39 1 72 -3 72 -8z m770 -12 c0 -5 -14 -9 -31 -9 -26 0 -29 3 -20 14 12 14
51 10 51 -5z m-261 -2 c14 -6 26 -18 29 -26 3 -8 0 -11 -7 -7 -6 4 -48 15 -93
26 l-83 18 65 1 c36 0 76 -5 89 -12z m-2135 -44 c9 -25 14 -48 13 -50 -2 -1
-25 -6 -51 -9 l-47 -7 27 57 c16 31 31 56 35 56 4 0 14 -21 23 -47z m892 25
c9 -14 -2 -21 -25 -13 -28 8 -28 35 -1 28 11 -3 23 -10 26 -15z m1387 5 c-7
-2 -19 -2 -25 0 -7 3 -2 5 12 5 14 0 19 -2 13 -5z m-355 -19 c53 -8 140 -26
192 -39 103 -25 160 -33 258 -37 l62 -3 0 -121 0 -122 -77 30 c-72 27 -234 87
-293 108 -169 59 -442 170 -430 174 84 29 153 32 288 10z m-962 -19 c19 -14
19 -14 -2 -15 -12 0 -27 7 -34 15 -17 20 9 21 36 0z m-246 -30 c0 -33 -2 -35
-35 -35 -31 0 -35 3 -35 25 0 17 7 29 23 35 39 16 47 12 47 -25z m-1756 -99
c-47 -97 -64 -122 -95 -142 -21 -13 -42 -24 -46 -24 -14 -1 -48 -34 -61 -60
-7 -14 -22 -41 -33 -60 -14 -25 -19 -55 -19 -106 0 -41 -5 -75 -12 -82 -18
-18 -84 -15 -163 8 -89 25 -116 25 -193 -2 -75 -27 -85 -20 -76 55 6 44 5 47
-17 47 -12 0 -36 -12 -51 -27 l-28 -27 0 40 c0 35 6 44 51 83 28 24 54 54 59
67 8 21 16 24 65 24 30 0 55 -2 55 -5 0 -3 -7 -22 -15 -42 -30 -71 -11 -124
50 -139 43 -11 130 1 158 22 31 23 36 33 51 104 11 50 15 55 41 60 27 5 30 9
27 37 -3 28 2 34 45 59 62 35 91 62 110 99 9 17 19 32 23 35 4 3 15 20 24 38
9 17 24 32 34 32 9 1 28 7 42 15 14 7 26 12 28 11 1 -2 -23 -56 -54 -120z
m1860 108 c9 -3 16 -15 16 -25 0 -15 -7 -19 -31 -19 -24 0 -30 3 -25 16 3 9 6
20 6 25 0 10 12 12 34 3z m217 -4 c5 0 9 -7 9 -15 0 -18 -5 -18 -31 -5 -23 13
-26 35 -3 26 9 -3 20 -6 25 -6z m85 -42 c9 -14 -2 -21 -25 -13 -28 8 -28 35
-1 28 11 -3 23 -10 26 -15z m-295 -43 c3 -13 12 -19 24 -17 10 2 48 9 85 16
l67 13 -1 -36 -1 -36 72 -3 72 -3 3 -42 3 -42 45 0 c25 0 75 4 112 8 l66 7 -1
-52 -2 -53 83 2 c80 1 82 1 82 -22 0 -13 12 -38 27 -55 l27 -32 100 3 100 4
11 -55 c8 -42 15 -56 30 -58 11 -2 30 -8 42 -14 14 -7 49 -9 93 -5 l70 6 1
-47 c0 -26 4 -67 7 -92 l7 -45 147 4 147 3 0 -77 c0 -75 10 -103 34 -88 12 7
57 -6 57 -17 0 -5 -12 -16 -27 -24 -24 -12 -30 -12 -50 1 -20 13 -53 17 -121
14 -13 -1 -34 -12 -47 -25 -21 -21 -36 -25 -132 -30 -60 -4 -126 -11 -148 -16
-22 -5 -40 -8 -41 -7 -1 1 -4 39 -7 85 -4 67 -3 82 9 82 12 0 14 19 12 103
l-3 102 -224 3 c-169 2 -229 6 -240 16 -9 7 -45 30 -81 52 -192 115 -390 177
-637 200 -61 6 -72 9 -77 28 -7 24 -8 250 -2 257 2 2 49 4 103 4 89 0 98 -2
104 -20z m363 19 c17 -6 22 -34 7 -34 -5 0 -19 9 -32 20 -19 15 -21 19 -7 20
9 0 23 -3 32 -6z m-1231 -21 c-7 -2 -19 -2 -25 0 -7 3 -2 5 12 5 14 0 19 -2
13 -5z m1308 -13 c5 0 9 -6 9 -14 0 -9 -8 -12 -25 -8 -14 2 -25 11 -25 19 0
10 6 13 16 9 9 -3 20 -6 25 -6z m87 -50 c3 -9 -1 -11 -12 -7 -10 4 -22 7 -27
7 -5 0 -9 7 -9 15 0 18 42 5 48 -15z m-1328 -70 l0 -80 -28 0 c-26 0 -28 3
-24 30 5 38 -12 60 -48 60 -38 0 -48 -16 -52 -83 -2 -37 -7 -57 -15 -57 -10 0
-13 24 -13 90 l0 89 43 11 c23 6 47 13 52 15 6 2 27 4 48 4 l37 1 0 -80z m114
58 c23 -10 24 -12 10 -23 -15 -10 -15 -22 -6 -106 7 -52 8 -97 3 -102 -5 -5
-19 -7 -32 -5 -24 3 -24 5 -27 126 -3 133 -2 135 52 110z m1282 -10 c3 -5 4
-12 1 -14 -7 -7 -47 15 -47 25 0 11 38 2 46 -11z m-1206 -48 c18 -25 19 -34
10 -45 -19 -23 -5 -42 49 -68 l51 -24 -60 -16 c-33 -10 -62 -17 -64 -17 -2 0
-7 37 -11 83 -3 45 -9 90 -11 100 -8 27 13 20 36 -13z m1274 24 c9 -3 16 -12
16 -20 0 -16 -42 -4 -48 14 -4 13 8 15 32 6z m-1704 -24 c0 -16 -7 -20 -30
-20 -23 0 -31 -5 -36 -25 -11 -43 3 -73 34 -77 l27 -3 3 -124 c3 -118 -4 -151
-29 -151 -5 0 -9 36 -9 79 0 44 -5 83 -10 86 -6 3 -98 7 -206 9 -158 1 -197 5
-205 16 -12 20 -7 52 9 58 9 3 11 -3 6 -22 -8 -35 8 -37 196 -34 130 3 155 5
155 18 0 10 -12 16 -35 17 -173 12 -179 14 -172 34 4 11 6 37 4 58 -4 42 -21
56 -54 45 -17 -5 -19 -14 -16 -65 l3 -59 -35 1 c-31 1 -32 2 -10 8 22 6 25 13
28 58 3 44 0 53 -17 63 -11 6 -32 8 -46 4 -19 -5 -25 -2 -25 10 0 14 21 15
193 9 166 -5 197 -4 222 10 40 22 55 21 55 -3z m-530 -10 c0 -12 -8 -12 -35 0
-18 8 -17 9 8 9 15 1 27 -3 27 -9z m2328 -20 c3 -9 -1 -11 -12 -7 -10 4 -22 7
-27 7 -5 0 -9 7 -9 15 0 18 42 5 48 -15z m-2408 -55 c0 -36 4 -65 10 -65 5 0
9 -10 7 -22 -2 -19 4 -24 31 -26 31 -3 47 -22 17 -22 -7 0 -18 -8 -24 -17 -8
-15 -24 -18 -85 -18 -50 0 -76 4 -76 11 0 17 -25 24 -81 24 l-49 0 0 65 0 64
108 34 c149 48 142 50 142 -28z m2466 41 c10 -8 16 -17 12 -21 -11 -11 -48 5
-48 21 0 18 11 18 36 0z m-2786 -126 c0 -55 -4 -100 -9 -100 -17 0 -20 -29 -5
-44 12 -12 14 -43 12 -166 l-3 -151 -61 31 -60 31 0 49 c1 42 -4 54 -32 83
l-33 34 26 7 c33 8 45 40 45 120 0 48 6 75 26 112 23 45 68 94 87 94 4 0 7
-45 7 -100z m2864 94 c9 -3 16 -12 16 -20 0 -16 -42 -4 -48 14 -4 13 8 15 32
6z m-3640 -3784 c6 -10 6 -12 -1 -5 -23 22 -173 249 -173 261 0 7 -4 14 -8 16
-34 13 -230 434 -284 608 -11 36 -24 70 -29 76 -5 6 -6 13 -4 16 3 3 0 18 -6
34 -7 16 -14 38 -16 49 -2 11 -6 27 -10 35 -3 8 -7 20 -8 25 -1 6 -3 12 -4 15
-1 3 -4 21 -7 40 -2 19 -7 42 -10 50 -4 8 -8 22 -10 30 -9 48 -14 80 -19 120
-3 25 -8 56 -11 70 -4 14 -8 39 -9 55 -2 17 -6 57 -10 90 -8 71 -8 548 -1 620
13 114 28 218 41 285 3 14 7 36 9 50 3 14 21 84 39 155 19 72 33 133 30 138
-2 4 -1 7 4 7 4 0 14 19 21 43 41 133 109 297 182 440 22 42 37 77 33 77 -5 0
-3 4 2 8 6 4 30 41 54 82 24 41 76 122 115 180 l71 104 5 -1879 c3 -1081 9
-1886 14 -1895z m5007 3683 c1 -83 0 -115 -5 -120 -2 -2 -91 30 -291 106 -27
11 -90 34 -140 52 -49 18 -94 36 -99 40 -5 4 113 8 263 9 l271 0 1 -87z m99
74 c0 -7 10 -23 23 -37 12 -14 29 -38 37 -53 8 -16 24 -40 37 -53 12 -14 23
-27 23 -29 0 -3 20 -40 45 -83 25 -42 50 -84 55 -92 4 -8 26 -51 47 -95 21
-44 41 -83 46 -86 4 -3 9 -15 11 -26 5 -26 47 -125 58 -137 4 -6 8 -16 8 -23
0 -8 7 -30 16 -51 10 -20 18 -43 20 -50 1 -8 10 -29 19 -48 9 -19 18 -47 19
-62 2 -15 5 -27 6 -27 1 0 4 -13 6 -28 3 -15 10 -40 16 -55 7 -15 13 -31 14
-37 1 -5 3 -12 4 -15 1 -3 4 -15 6 -27 2 -13 6 -33 8 -45 2 -13 5 -23 6 -23 1
0 4 -9 6 -20 2 -11 6 -33 9 -50 3 -16 7 -43 9 -60 2 -16 5 -31 6 -32 1 -2 4
-15 6 -30 2 -16 5 -41 7 -58 17 -112 21 -200 21 -430 -1 -249 -7 -391 -20
-445 -3 -14 -8 -38 -11 -55 -8 -50 -10 -59 -16 -75 -3 -8 -6 -22 -6 -30 -1
-18 -14 -93 -26 -140 -9 -35 -11 -43 -19 -61 -4 -9 -8 -29 -10 -45 -2 -16 -5
-30 -6 -31 -1 -2 -4 -7 -5 -13 -1 -5 -4 -12 -5 -15 -1 -3 -3 -8 -4 -12 -1 -5
-6 -24 -10 -43 -5 -19 -15 -44 -22 -56 -8 -11 -12 -23 -8 -26 3 -3 -4 -23 -15
-44 -12 -21 -21 -44 -21 -51 0 -8 -4 -21 -10 -31 -14 -25 -52 -115 -54 -127
-1 -5 -6 -17 -11 -25 -5 -8 -24 -44 -42 -80 -65 -129 -114 -214 -190 -329 -42
-64 -77 -120 -78 -125 0 -5 -6 -11 -12 -13 -10 -4 -13 379 -13 1871 0 1237 3
1876 10 1876 6 0 10 -6 10 -13z m-1384 -11 c10 -8 16 -17 12 -21 -11 -11 -48
5 -48 21 0 18 11 18 36 0z m-3566 -3 c0 -13 -53 -63 -67 -63 -8 0 -13 13 -13
35 0 34 1 35 40 35 22 0 40 -3 40 -7z m377 -35 c-9 -65 -50 -98 -124 -98 -87
0 -115 39 -78 110 l16 30 96 0 96 0 -6 -42z m2979 21 c0 -8 -2 -18 -4 -23 -5
-10 -22 14 -22 32 0 18 25 9 26 -9z m299 -30 c12 -19 -4 -22 -30 -5 -29 19
-25 42 5 26 10 -6 22 -15 25 -21z m59 -15 c15 -6 23 -34 10 -34 -13 0 -44 21
-44 30 0 11 11 13 34 4z m-1924 -43 c0 -13 -25 -33 -82 -65 -45 -25 -85 -46
-90 -46 -4 0 -8 29 -8 65 l0 65 90 0 c81 0 90 -2 90 -19z m811 3 c232 -40 470
-153 669 -319 128 -107 284 -279 349 -385 21 -35 21 -36 21 -856 0 -451 -3
-824 -7 -827 -3 -4 -17 3 -30 15 -22 21 -27 21 -71 9 -26 -6 -63 -23 -83 -37
-27 -18 -48 -24 -92 -24 -56 0 -56 0 -61 33 -3 17 -8 100 -11 182 -6 163 -56
648 -81 785 -26 146 -70 261 -137 359 l-30 44 -13 256 c-7 141 -13 257 -13
259 -1 1 -43 2 -94 2 l-94 0 -48 76 c-84 133 -184 214 -285 230 -50 8 -48 28
3 32 29 3 37 7 37 23 0 16 -7 19 -40 19 l-40 0 0 40 c0 33 -3 40 -19 40 -16 0
-20 -8 -23 -37 -3 -37 -4 -38 -45 -41 -34 -3 -43 -7 -43 -22 0 -14 8 -20 32
-22 47 -4 50 -34 5 -42 -57 -11 -146 -77 -240 -176 l-87 -93 -114 7 c-63 4
-117 3 -119 -1 -3 -4 -12 -172 -21 -373 -22 -476 -17 -443 -70 -474 -64 -37
-116 -99 -116 -139 -1 -17 -7 -116 -14 -219 -12 -174 -15 -190 -38 -220 -55
-72 -55 -76 -63 -363 l-8 -269 -33 -51 c-18 -27 -45 -81 -60 -120 -25 -63 -27
-81 -25 -187 l2 -117 -48 -7 c-68 -9 -81 -19 -107 -77 -13 -29 -33 -68 -44
-87 l-22 -35 0 1245 0 1245 65 86 c253 337 604 568 961 633 110 20 329 20 445
0z m1195 2 c10 -8 16 -17 12 -21 -11 -11 -48 5 -48 21 0 18 11 18 36 0z m-146
-52 c0 -17 -6 -24 -20 -24 -20 0 -40 27 -40 54 0 12 5 13 30 5 22 -8 30 -17
30 -35z m235 5 c12 -19 -4 -22 -30 -5 -29 19 -25 42 5 26 10 -6 22 -15 25 -21z
m-2654 -9 l109 0 0 -69 c0 -77 5 -83 64 -75 64 8 57 -27 -20 -99 l-52 -48 -48
19 c-87 34 -117 36 -147 8 -15 -14 -27 -34 -27 -46 0 -11 -4 -20 -10 -20 -6 0
-10 64 -10 171 0 152 2 170 16 165 9 -3 65 -6 125 -6z m-428 -7 c-7 -2 -19 -2
-25 0 -7 3 -2 5 12 5 14 0 19 -2 13 -5z m3141 1 c15 -6 23 -34 10 -34 -13 0
-44 21 -44 30 0 11 11 13 34 4z m-3956 -37 c-1 -12 4 -37 11 -55 11 -26 19
-32 45 -32 17 0 51 9 75 20 55 25 84 25 176 -2 l75 -22 -57 -33 c-53 -30 -63
-32 -115 -27 -49 6 -58 4 -58 -9 0 -23 -68 -89 -88 -85 -9 2 -19 14 -22 28 -5
23 -44 50 -92 64 -15 4 -18 17 -18 62 0 52 3 60 33 85 39 34 39 34 35 6z
m1412 -17 c0 -22 -4 -40 -10 -40 -11 0 -14 63 -3 73 11 12 13 8 13 -33z m-378
-121 c2 -83 2 -152 0 -154 -1 -1 -19 3 -39 10 -50 17 -69 9 -104 -41 -50 -74
-96 -83 -154 -33 -34 30 -35 33 -35 105 l0 74 85 -6 c74 -6 85 -5 91 10 4 9 4
20 0 23 -3 4 -44 9 -91 11 l-85 5 0 58 c0 45 4 59 14 59 10 0 16 -13 18 -37
l3 -38 95 0 95 0 3 40 c4 61 7 65 56 65 l45 0 3 -151z m3004 137 c10 -8 16
-17 12 -21 -11 -11 -48 5 -48 21 0 18 11 18 36 0z m-3246 -31 c0 -8 -4 -15
-10 -15 -5 0 -10 7 -10 15 0 8 5 15 10 15 6 0 10 -7 10 -15z m3085 3 c24 -11
26 -15 23 -77 -3 -60 -5 -66 -25 -69 -19 -3 -23 1 -23 25 0 15 -3 52 -6 81 -7
57 -7 57 31 40z m245 -24 c0 -9 -5 -12 -12 -8 -27 15 -38 27 -32 35 8 13 44
-9 44 -27z m64 -10 c15 -6 23 -34 10 -34 -13 0 -44 21 -44 30 0 11 11 13 34 4z
m80 -37 c11 -8 17 -18 15 -24 -6 -16 -49 3 -49 22 0 19 11 19 34 2z m-3829
-43 c12 -7 20 -22 20 -37 -1 -14 3 -23 7 -21 16 10 7 -12 -11 -28 -33 -28 -60
-32 -69 -9 -4 11 -11 20 -17 20 -5 1 -25 6 -44 12 l-34 12 27 14 c14 8 30 12
34 9 4 -2 18 9 32 24 14 15 27 25 30 22 3 -4 14 -12 25 -18z m3185 -54 l0 -70
-96 0 -95 0 -72 61 c-40 34 -76 65 -81 70 -6 5 66 9 167 9 l177 0 0 -70z m729
56 c8 -10 9 -16 2 -21 -13 -7 -51 12 -51 25 0 15 36 12 49 -4z m72 -26 c5 0 9
-7 9 -15 0 -18 -5 -18 -31 -5 -23 13 -26 35 -3 26 9 -3 20 -6 25 -6z m-4191
-25 c0 -15 -60 -66 -71 -60 -8 6 -7 10 4 16 9 6 13 17 10 29 -5 17 0 20 26 20
17 0 31 -2 31 -5z m50 -5 c0 -5 -4 -10 -10 -10 -5 0 -10 5 -10 10 0 6 5 10 10
10 6 0 10 -4 10 -10z m3934 -42 c10 -88 10 -88 -29 -88 -33 0 -35 2 -35 33 0
17 -3 49 -6 70 -7 37 -6 37 28 37 35 0 35 0 42 -52z m292 30 c9 -14 -2 -21
-25 -13 -28 8 -28 35 -1 28 11 -3 23 -10 26 -15z m-4514 -24 c-3 -16 -9 -23
-18 -20 -8 3 -14 -1 -14 -9 0 -19 54 -47 74 -39 9 4 16 1 16 -6 0 -8 9 -11 24
-8 14 3 30 2 37 -2 6 -4 -6 -9 -29 -12 -22 -2 -38 0 -36 4 2 3 0 9 -6 13 -5 3
-10 1 -10 -4 0 -6 -15 -11 -34 -11 -37 0 -53 -21 -40 -53 5 -13 15 -15 49 -10
31 4 50 1 66 -11 23 -16 23 -16 2 -16 -12 0 -29 -10 -37 -21 -16 -23 -46 -20
-46 5 0 16 -27 29 -35 16 -8 -13 5 -60 17 -60 12 0 8 -70 -5 -87 -6 -9 -5 -13
3 -13 8 0 11 -2 8 -5 -3 -3 -13 -3 -22 1 -14 5 -16 28 -16 186 0 98 3 177 8
175 5 -3 36 4 48 12 1 1 -1 -11 -4 -25z m1265 0 c104 -36 101 -26 34 -96 -33
-35 -80 -89 -103 -120 -24 -32 -48 -57 -54 -58 -6 0 -11 -6 -11 -13 0 -7 -10
-28 -23 -45 l-24 -32 -378 0 -378 0 -11 27 c-5 15 -13 46 -16 70 -7 50 3 66
58 93 21 11 47 37 62 62 14 24 35 52 46 62 21 19 22 19 94 -17 40 -21 86 -37
103 -37 20 0 42 -10 64 -30 66 -59 109 -53 175 25 26 30 53 55 60 55 7 0 40
-14 73 -31 33 -18 67 -29 76 -26 8 3 20 25 27 49 23 80 43 90 126 62z m-977
-4 c0 -5 8 -6 18 -3 14 6 15 4 5 -8 -10 -13 -10 -19 0 -33 12 -16 14 -16 39 3
34 27 40 26 24 -4 -7 -13 -12 -38 -11 -55 1 -20 -3 -30 -12 -30 -8 0 -11 5 -8
10 3 6 -4 10 -16 10 -18 0 -20 3 -11 12 19 19 14 28 -13 28 -20 0 -25 5 -25
25 0 20 -5 25 -27 26 -17 1 -21 3 -10 6 9 2 17 9 17 14 0 5 7 9 15 9 8 0 15
-4 15 -10z m4298 -2 c30 -30 5 -37 -29 -8 -23 19 -23 19 -3 20 11 0 25 -5 32
-12z m73 -28 c5 0 9 -7 9 -15 0 -18 -5 -18 -31 -5 -23 13 -26 35 -3 26 9 -3
20 -6 25 -6z m-4541 -10 c-8 -5 -22 -10 -30 -10 -13 0 -13 1 0 10 8 5 22 10
30 10 13 0 13 -1 0 -10z m310 -17 c0 -5 -4 -14 -9 -21 -7 -11 -9 -11 -14 1 -3
8 -3 18 0 21 9 8 23 7 23 -1z m4316 -15 c9 -14 -2 -21 -25 -13 -28 8 -28 35
-1 28 11 -3 23 -10 26 -15z m73 -32 c19 -23 -5 -28 -30 -6 -24 19 -24 19 -3
20 12 0 27 -6 33 -14z m-4489 -22 c0 -2 -9 -13 -20 -24 -14 -14 -32 -20 -62
-18 l-43 1 42 4 c40 4 41 5 33 33 -8 28 -8 28 21 18 16 -5 29 -12 29 -14z
m4544 0 c9 -3 16 -13 16 -21 0 -10 -6 -13 -16 -9 -9 3 -18 6 -20 6 -2 0 -4 7
-4 15 0 17 2 18 24 9z m-1262 -49 c2 -25 1 -45 -2 -45 -6 0 -70 77 -70 84 0 3
15 6 34 6 33 0 34 -1 38 -45z m1178 10 l25 -14 -27 -1 c-16 0 -37 -9 -48 -20
-26 -26 -34 -25 -52 2 -12 18 -24 22 -56 21 -22 -1 -54 -9 -71 -17 -33 -18
-71 -21 -71 -7 0 5 -16 16 -37 23 -35 13 -34 13 63 19 188 10 248 9 274 -6z
m-400 2 c0 -2 -14 -13 -31 -26 -29 -22 -31 -22 -57 -5 l-27 18 30 7 c33 7 85
11 85 6z m-4200 -15 c0 -2 -7 -10 -15 -18 -13 -13 -18 -13 -35 -1 -11 7 -17
17 -13 20 6 7 63 6 63 -1z m3927 -25 c4 -7 0 -8 -11 -4 -10 4 -24 7 -32 7 -9
0 -13 4 -10 9 7 11 44 3 53 -12z m-3971 -29 c6 -21 -6 -41 -13 -21 -7 19 -33
3 -34 -21 0 -20 -1 -20 -9 -1 -7 18 -8 17 -15 -10 -4 -16 -8 -36 -11 -42 -5
-17 -30 -17 -37 0 -7 17 32 97 48 97 7 0 18 6 25 14 14 18 37 10 46 -16z
m4097 12 c4 -14 10 -18 22 -14 14 6 16 3 10 -17 -7 -21 -6 -22 8 -11 13 11 16
10 22 -6 6 -20 57 -40 62 -25 10 26 25 36 63 39 38 3 42 1 37 -16 -3 -11 1
-21 9 -24 8 -3 14 -10 14 -16 0 -7 -6 -8 -19 0 -29 15 -87 12 -101 -5 -7 -8
-23 -15 -35 -15 -12 0 -28 7 -35 15 -7 8 -19 15 -26 15 -8 0 -14 7 -14 15 0 9
-9 15 -25 15 -14 0 -28 -7 -31 -15 -8 -19 -34 -20 -34 0 0 8 -9 19 -19 25 -27
14 -34 13 -27 -5 4 -11 -2 -15 -20 -15 -17 0 -27 8 -35 26 -11 31 -2 47 12 22
9 -16 12 -16 50 -1 34 13 42 14 49 2 6 -8 4 -16 -3 -21 -24 -15 1 -18 34 -4
l34 14 -27 7 c-30 8 -36 20 -15 28 24 10 35 7 40 -13z m-3960 -12 c-2 -13 3
-44 11 -70 l14 -48 -99 0 c-97 0 -98 0 -90 22 4 12 21 26 37 30 34 9 54 33 54
65 0 20 5 23 39 23 34 0 38 -2 34 -22z m3752 12 c3 -5 2 -10 -4 -10 -5 0 -13
5 -16 10 -3 6 -2 10 4 10 5 0 13 -4 16 -10z m399 -6 c8 -22 6 -23 -26 -17 -22
4 -25 8 -15 19 16 18 34 17 41 -2z m231 -14 c10 -11 13 -20 7 -20 -7 0 -12 -7
-12 -16 0 -16 -33 -16 -132 2 -50 8 -49 23 2 22 22 0 37 -4 34 -9 -10 -17 38
-9 63 11 18 14 21 20 10 20 -8 0 -17 -5 -19 -12 -3 -7 -12 -9 -23 -4 -16 6
-17 9 -5 16 24 16 56 11 75 -10z m123 8 c-3 -14 5 -14 35 -3 10 4 17 3 17 -5
0 -6 4 -8 10 -5 6 3 7 -1 4 -9 -3 -9 -3 -24 0 -33 6 -15 8 -15 16 -3 7 11 10
8 10 -12 0 -20 -4 -26 -15 -22 -20 8 -19 -10 1 -30 13 -14 13 -16 1 -16 -8 0
-18 11 -21 25 -4 15 -11 23 -17 19 -8 -4 -7 -9 2 -15 10 -6 11 -11 3 -19 -13
-13 -698 -10 -726 4 -10 5 -14 14 -11 24 13 34 53 44 53 13 0 -10 7 -22 16
-25 28 -11 336 -7 329 4 -4 6 5 10 19 10 14 0 26 5 26 11 0 7 14 9 43 5 60
-10 99 -10 126 -1 18 6 23 5 19 -6 -3 -8 -20 -17 -39 -20 -22 -4 -8 -6 41 -6
41 0 62 2 45 5 l-30 4 34 12 c43 15 50 33 18 45 -29 11 -40 34 -24 50 14 14
18 14 15 -1z m-775 -34 c47 -36 53 -48 41 -78 -5 -14 -29 -16 -159 -16 l-153
0 -37 50 c-21 28 -35 53 -32 56 8 9 128 21 213 23 78 1 82 0 127 -35z m730
-15 l22 -20 -34 6 c-42 7 -53 14 -46 26 10 15 34 10 58 -12z m-483 -44 c11
-13 6 -15 -36 -15 -44 0 -46 1 -28 15 25 19 48 19 64 0z m-3200 -710 l0 -584
-76 -218 c-42 -120 -159 -459 -260 -753 -102 -294 -195 -563 -207 -597 l-22
-63 -167 0 c-128 0 -168 3 -168 13 0 6 38 106 85 222 49 121 83 217 79 227 -5
16 -21 18 -175 18 -144 0 -169 2 -169 15 0 13 28 15 196 15 115 0 203 4 215
10 15 9 19 22 19 68 0 51 21 111 199 555 110 274 197 505 194 512 -8 23 -37
27 -187 24 -100 -3 -148 0 -158 8 -8 7 -50 13 -93 15 l-80 3 -3 100 c-2 83 -6
102 -22 118 -13 11 -20 31 -20 53 0 68 -68 159 -127 170 -18 3 -33 10 -33 15
0 11 67 29 112 29 36 0 37 -1 32 -29 -3 -16 -1 -38 5 -49 24 -44 105 -32 280
44 l104 46 130 -22 c72 -12 145 -19 164 -15 39 7 63 38 63 81 0 49 -29 68
-113 72 -57 4 -78 9 -100 28 -33 28 -50 29 -132 9 -78 -19 -119 -19 -158 1
-41 21 -47 31 -47 79 -1 74 -50 150 -113 174 -47 18 -81 13 -151 -22 -36 -19
-68 -31 -71 -29 -3 3 -5 40 -5 83 0 62 -3 78 -16 83 -33 13 -43 -12 -46 -112
-3 -83 -6 -97 -20 -100 -17 -3 -18 9 -18 142 l0 146 540 0 540 0 0 -585z
m3800 -824 c0 -1177 -2 -1410 -14 -1420 -9 -8 -164 -10 -557 -9 l-544 3 -3
1418 -2 1417 560 0 560 0 0 -1409z m-2518 1342 c26 -30 37 -57 44 -111 l7 -52
-51 0 c-56 0 -52 -5 -73 92 -10 46 -10 60 1 73 17 20 53 19 72 -2z m-2051
-193 c27 -15 50 -65 55 -122 9 -90 59 -134 164 -145 l63 -6 -89 -42 c-105 -50
-140 -62 -129 -46 12 20 -4 61 -28 70 -39 15 -120 20 -180 12 l-57 -8 0 111 0
111 48 23 c26 13 58 30 72 37 30 17 54 19 81 5z m443 -279 c-1 -2 -38 0 -81 4
l-78 8 60 12 c51 9 63 8 82 -5 11 -8 19 -17 17 -19z m156 -19 c0 -4 -16 -6
-35 -4 -19 2 -35 6 -35 8 0 2 16 4 35 4 19 0 35 -4 35 -8z m-870 -100 c0 -4
-5 -13 -12 -20 -18 -18 -28 -15 -28 8 0 13 7 20 20 20 11 0 20 -4 20 -8z m117
-84 c30 -28 29 -32 -11 -57 -24 -15 -42 -19 -64 -15 -24 5 -33 2 -44 -15 -14
-23 -30 -29 -24 -8 3 6 7 24 10 38 16 72 85 102 133 57z m2163 -48 c42 -23 89
-154 90 -252 l0 -38 -70 0 c-68 0 -70 1 -76 28 -4 15 -20 74 -35 132 -26 96
-27 106 -12 122 18 20 73 24 103 8z m-2120 -69 c0 -5 -7 -11 -15 -15 -15 -5
-20 5 -8 17 9 10 23 9 23 -2z m-27 -178 c-3 -54 0 -117 5 -140 9 -39 8 -43 -9
-43 -18 0 -19 9 -19 124 0 68 -3 131 -6 140 -4 11 0 16 13 16 19 0 20 -6 16
-97z m-73 -243 c8 -5 61 -10 118 -10 l102 0 1 -162 c0 -90 4 -188 8 -219 7
-56 7 -57 -16 -46 -22 10 -23 14 -23 158 0 81 -3 154 -6 163 -5 14 -28 16
-145 16 l-139 0 0 70 c0 64 2 70 20 70 29 0 40 37 40 139 0 140 15 116 20 -34
4 -106 8 -138 20 -145z m320 89 l0 -29 -96 0 c-84 0 -95 2 -90 16 3 9 6 23 6
32 0 15 11 17 90 14 l90 -3 0 -30z m285 -58 c-10 -31 -21 -49 -27 -45 -7 5 -9
-2 -4 -20 3 -14 2 -26 -3 -26 -5 0 -15 -16 -22 -35 -7 -19 -17 -35 -21 -35 -5
0 -6 -11 -2 -24 3 -14 1 -33 -5 -43 -9 -15 -10 -13 -5 12 l5 30 -22 -25 -22
-25 6 25 c14 63 19 159 8 179 -8 14 -8 21 -1 21 5 0 10 7 10 15 0 21 20 19 21
-2 0 -10 0 -43 0 -73 l0 -55 20 45 c12 25 25 60 29 78 7 30 6 32 -19 32 -20 0
-23 2 -11 10 8 5 22 7 30 5 8 -2 22 0 30 5 22 14 23 5 5 -49z m-141 11 c3 -20
4 -89 2 -154 -2 -64 1 -122 6 -130 6 -9 7 -5 3 12 -7 23 -6 24 10 9 13 -13 14
-21 6 -35 -5 -11 -22 -53 -37 -94 -24 -69 -64 -132 -64 -102 0 7 4 12 8 12 12
0 12 89 1 96 -13 7 -11 61 2 83 8 12 9 23 2 36 -7 12 -7 27 0 46 8 21 8 38 -2
65 -11 30 -11 38 0 45 10 6 10 15 2 43 -9 30 -9 36 3 36 12 0 14 -33 14 -186
0 -121 3 -183 10 -179 6 3 10 26 10 51 0 24 5 44 10 44 7 0 7 6 0 19 -5 11
-10 70 -10 131 0 65 -5 120 -12 133 -10 20 -10 21 5 8 15 -12 17 -11 17 7 0
39 -34 36 -42 -3 -2 -11 -6 -15 -10 -10 -11 19 9 50 35 53 22 1 26 -3 31 -36z
m51 28 c3 -5 1 -10 -4 -10 -6 0 -11 5 -11 10 0 6 2 10 4 10 3 0 8 -4 11 -10z
m1679 -119 c23 -26 45 -87 46 -128 0 -32 -1 -33 -40 -33 -35 0 -40 3 -46 28
-3 15 -12 50 -19 79 -9 37 -10 54 -2 62 17 17 42 13 61 -8z m-2139 -154 c4
-18 5 -60 3 -93 l-3 -59 33 1 c31 2 32 1 32 -37 l0 -39 -110 0 -110 0 0 25 c0
23 4 24 63 27 l62 3 3 69 c2 38 -1 73 -6 78 -5 5 -34 9 -65 9 -53 1 -57 3 -57
25 0 23 3 24 75 24 l74 0 6 -33z m906 -53 c-14 -75 -30 -109 -43 -96 -7 7 -4
32 13 86 26 83 45 89 30 10z m2566 -94 c1 -11 -2 -22 -8 -25 -5 -3 -6 1 -3 9
5 13 1 14 -24 5 -17 -6 -36 -17 -43 -25 -13 -16 -39 -19 -39 -4 0 6 5 10 11
10 5 0 7 5 4 10 -3 6 0 10 7 10 9 0 9 3 -2 10 -11 8 -8 9 11 4 15 -3 30 -1 33
5 12 20 52 13 53 -9z m-2603 -31 c9 8 12 1 13 -27 1 -34 0 -35 -13 -17 -17 22
-19 12 -3 -16 8 -16 6 -30 -10 -62 -13 -26 -17 -45 -11 -52 10 -12 16 -838 6
-854 -3 -5 -3 -17 0 -26 5 -12 14 -14 34 -10 25 5 28 4 23 -13 -7 -28 -71 -38
-89 -14 -7 9 -9 19 -6 22 13 9 13 48 1 56 -6 4 -46 6 -88 6 -42 -1 -94 2 -116
6 -34 6 -40 11 -37 30 2 12 -1 22 -6 22 -6 0 -14 12 -20 28 -10 30 -5 92 9 92
5 0 9 12 9 28 0 45 17 60 22 18 2 -23 -1 -37 -9 -40 -17 -7 -17 -37 0 -60 9
-13 11 -32 7 -62 -4 -24 -4 -44 -1 -44 14 1 29 16 32 34 6 30 29 32 29 2 l0
-26 90 0 90 0 0 399 c0 256 -4 402 -10 406 -5 3 -10 -1 -10 -9 0 -8 -4 -17 -9
-20 -12 -8 12 81 33 122 11 22 15 44 11 70 -5 30 -4 34 5 19 8 -13 15 -15 24
-8z m2486 17 c0 -3 -4 -8 -10 -11 -5 -3 -10 -1 -10 4 0 6 5 11 10 11 6 0 10
-2 10 -4z m164 -8 c-5 -8 -2 -9 9 -5 15 6 17 -4 15 -96 l-2 -102 -3 84 c-3 56
-9 88 -18 98 -18 17 -19 33 -4 33 5 0 7 -5 3 -12z m-1396 -41 c28 -25 52 -104
52 -169 0 -48 0 -48 -33 -48 -33 0 -35 2 -78 103 -24 56 -44 106 -44 112 0 14
46 34 64 28 9 -3 26 -15 39 -26z m981 -50 l1 -29 -26 31 c-25 30 -25 31 -7 58
l18 27 6 -29 c4 -17 7 -43 8 -58z m341 73 c0 -5 -7 -10 -16 -10 -8 0 -12 5 -9
10 3 6 10 10 16 10 5 0 9 -4 9 -10z m50 0 c0 -5 -2 -10 -4 -10 -3 0 -8 5 -11
10 -3 6 -1 10 4 10 6 0 11 -4 11 -10z m-300 -24 c0 -6 -4 -17 -8 -24 -6 -9
-12 -5 -20 13 -16 34 -15 34 8 28 11 -3 20 -10 20 -17z m26 -27 c-4 -28 -3
-39 6 -39 9 0 10 -3 2 -8 -19 -12 -27 -52 -14 -67 14 -17 3 -42 -12 -27 -14
14 -17 104 -5 120 6 7 10 26 9 43 0 18 3 27 10 23 6 -4 8 -22 4 -45z m-2869
-44 c-9 -19 -13 -21 -15 -9 -3 13 12 33 25 34 0 0 -4 -11 -10 -25z m555 -467
c-1 -243 -6 -437 -10 -432 -4 5 -5 214 -3 464 2 250 6 445 10 432 3 -13 5
-222 3 -464z m-702 236 c0 -157 -3 -225 -11 -222 -12 4 -26 416 -15 444 3 8
10 12 16 9 6 -4 10 -91 10 -231z m-92 8 l2 -203 -37 3 -38 3 -3 135 c-2 90 -7
137 -15 142 -19 12 -132 9 -145 -4 -8 -8 -12 -54 -12 -139 0 -75 -4 -130 -10
-134 -7 -4 -10 65 -10 200 l0 206 133 -3 132 -3 3 -203z m192 192 c0 -8 4 -13
8 -10 5 3 9 -1 9 -9 0 -8 -4 -12 -9 -9 -4 3 -8 -7 -9 -23 0 -15 -4 -37 -8 -48
-7 -18 -9 -17 -14 10 -11 59 -7 105 8 105 8 0 15 -7 15 -16z m3175 -43 c-6
-11 -95 -10 -95 1 0 4 23 8 51 8 28 0 48 -4 44 -9z m45 -1 c0 -5 -4 -10 -9
-10 -6 0 -13 5 -16 10 -3 6 1 10 9 10 9 0 16 -4 16 -10z m-2140 -60 c0 -11 -7
-23 -14 -26 -8 -3 -22 -28 -31 -55 -18 -53 -29 -66 -19 -21 11 44 46 122 55
122 5 0 9 -9 9 -20z m2135 -110 l0 -125 -110 -2 c-106 -2 -109 -1 -75 14 19 8
44 26 57 39 12 13 32 24 43 24 32 0 60 18 60 40 0 10 -11 31 -24 47 -13 15
-27 43 -31 61 l-7 33 44 -3 43 -3 0 -125z m-2735 95 c0 -14 4 -25 10 -25 5 0
9 -32 8 -75 -1 -41 -5 -75 -10 -75 -4 0 -8 11 -8 24 0 14 -4 28 -10 31 -5 3
-10 15 -10 26 0 10 5 19 10 19 6 0 10 9 10 21 0 11 -4 18 -9 15 -5 -4 -11 0
-14 6 -2 7 -9 -4 -16 -25 -11 -32 -10 -41 3 -62 9 -13 16 -35 16 -49 0 -14 5
-28 10 -31 15 -9 12 -41 -5 -55 -9 -7 -15 -29 -15 -51 0 -41 -2 -43 -77 -52
-27 -3 -33 0 -33 15 0 11 5 16 10 13 6 -3 10 1 10 9 0 19 16 21 24 4 3 -7 3 7
0 32 -3 36 -2 40 5 23 15 -33 25 -28 18 7 -4 16 -2 32 3 35 6 3 10 -1 10 -9 0
-9 7 -16 15 -16 8 0 15 4 15 9 0 13 -33 75 -45 83 -6 5 -5 8 2 8 8 0 11 10 7
29 -4 18 1 42 15 69 12 23 21 48 21 57 0 8 7 15 15 15 9 0 15 -9 15 -25z
m2630 4 c0 -6 -4 -7 -10 -4 -5 3 -10 11 -10 16 0 6 5 7 10 4 6 -3 10 -11 10
-16z m11 -80 c34 -33 37 -44 10 -29 -27 14 -31 13 -25 -7 5 -15 4 -16 -5 -3
-9 13 -12 12 -26 -5 -12 -14 -18 -16 -21 -7 -9 19 -24 14 -24 -9 0 -22 -24
-52 -33 -42 -3 3 -18 2 -32 -1 -18 -5 -25 -12 -21 -21 3 -8 2 -16 -2 -19 -4
-3 -9 5 -9 16 -2 23 43 67 70 68 26 0 20 29 -8 40 -36 14 -31 20 15 20 29 0
40 -4 40 -15 0 -8 7 -15 15 -15 15 0 17 12 17 75 0 25 1 26 5 6 2 -13 18 -36
34 -52z m-194 9 c-3 -8 -6 -5 -6 6 -1 11 2 17 5 13 3 -3 4 -12 1 -19z m-3257
-99 c0 -109 0 -110 -22 -107 -22 3 -23 8 -26 111 l-3 107 26 0 25 0 0 -111z
m3273 46 c-3 -8 -9 -15 -14 -15 -10 0 -12 24 -3 33 11 11 24 -3 17 -18z
m-2540 -71 c-6 -17 -23 -9 -23 11 0 8 6 12 14 9 8 -3 12 -12 9 -20z m-53 -101
c-11 -17 -11 -17 -6 0 3 10 7 26 7 35 1 15 2 15 6 0 2 -10 -1 -25 -7 -35z
m2890 39 c0 -4 -16 -6 -35 -4 -19 2 -35 6 -35 8 0 2 16 4 35 4 19 0 35 -4 35
-8z m-250 -22 c12 -8 13 -13 3 -30 -16 -24 -17 -33 -3 -25 6 3 10 -1 10 -9 0
-19 5 -20 31 -6 13 7 19 7 19 0 0 -5 7 -10 15 -10 18 0 20 -17 3 -23 -17 -5
-15 -85 2 -117 8 -15 15 -20 18 -12 5 17 22 15 22 -3 0 -8 5 -15 10 -15 6 0
10 -5 10 -11 0 -6 -8 -8 -19 -4 -29 9 -51 -44 -51 -122 0 -35 -4 -63 -10 -63
-11 0 -14 -101 -4 -137 13 -47 24 -21 23 51 -1 41 2 79 6 85 13 22 21 10 17
-25 -4 -31 -2 -35 14 -32 26 5 29 36 7 61 -21 23 -28 67 -12 67 5 0 9 -8 9
-17 0 -14 2 -15 9 -4 7 11 10 11 17 0 4 -7 3 -14 -4 -17 -7 -2 -12 -8 -12 -14
0 -6 7 -8 14 -5 36 14 23 -52 -22 -123 -2 -2 -7 2 -12 10 -7 11 -9 8 -8 -10 1
-14 6 -31 11 -37 5 -7 7 -19 4 -27 -3 -8 -1 -16 5 -18 6 -2 3 -10 -6 -18 -15
-12 -18 -11 -23 8 -3 15 -13 22 -28 22 -27 0 -44 -30 -17 -30 16 -1 16 -1 0
-11 -10 -5 -34 -8 -55 -5 -21 3 -44 5 -51 5 -22 1 -8 36 14 37 12 1 33 4 47 8
25 6 26 8 24 79 -2 70 -3 72 -26 69 -21 -3 -23 -1 -18 20 4 12 7 32 8 43 1 16
2 15 8 -5 4 -14 15 -26 24 -28 15 -3 17 6 17 70 0 43 5 79 12 86 9 9 8 24 -2
66 -7 31 -17 53 -22 50 -4 -3 -8 6 -8 20 0 16 6 26 15 26 8 0 15 7 15 15 0 17
-14 19 -39 6 -28 -16 -45 3 -38 42 3 20 1 37 -4 39 -11 4 -2 38 10 38 3 0 13
-5 21 -10z m178 -7 l72 -5 0 -33 c0 -29 -3 -32 -22 -28 -13 3 -30 11 -38 18
-8 7 -26 16 -40 19 -25 7 -25 7 -5 -11 22 -20 30 -43 16 -43 -5 0 -11 7 -15
15 -3 8 -13 15 -21 15 -9 0 -13 -4 -10 -10 3 -5 2 -10 -4 -10 -5 0 -11 12 -13
28 -2 20 -8 26 -22 24 -25 -5 -49 6 -41 18 7 11 28 11 143 3z m-2288 -104 c0
-11 -7 -19 -15 -19 -13 0 -15 -21 -15 -127 0 -172 11 -353 22 -353 4 0 8 108
8 240 0 214 2 240 16 240 13 0 15 -8 12 -40 -2 -22 0 -41 5 -43 4 -1 3 -72 -2
-157 -10 -148 -11 -188 -13 -342 0 -71 -6 -79 -33 -52 -12 12 -13 19 -5 24 9
5 8 11 -2 21 -12 10 -13 23 -6 53 7 33 6 43 -7 53 -15 10 -17 39 -13 265 2
149 7 258 13 264 13 16 35 -2 35 -27z m63 17 c8 -21 11 -512 3 -525 -4 -6 -4
-43 0 -81 6 -67 6 -70 -15 -70 -18 0 -20 3 -13 18 18 34 20 598 2 616 -15 15
-12 56 4 56 8 0 16 -6 19 -14z m97 -7 c0 -5 -4 -9 -10 -9 -5 0 -10 7 -10 16 0
8 5 12 10 9 6 -3 10 -10 10 -16z m732 4 c26 -30 37 -57 44 -111 l7 -52 -50 0
-49 0 -21 70 c-18 61 -18 72 -6 90 17 25 55 26 75 3z m-1432 -19 c0 -8 -7 -14
-16 -14 -8 0 -12 -4 -9 -10 9 -14 -6 -110 -17 -110 -6 0 -7 11 -4 26 4 14 3
23 -2 20 -5 -3 -4 15 1 39 6 25 14 45 19 45 4 0 8 7 8 16 0 8 5 12 10 9 6 -3
10 -13 10 -21z m150 1 c0 -8 -7 -15 -15 -15 -8 0 -15 7 -15 15 0 8 7 15 15 15
8 0 15 -7 15 -15z m2727 -275 c1 -212 -2 -280 -12 -296 -17 -27 -242 -142
-391 -200 -140 -54 -335 -106 -494 -131 -90 -14 -170 -18 -370 -17 -229 0
-270 3 -400 27 -144 25 -318 73 -441 121 -101 39 -30 32 103 -10 79 -25 152
-40 243 -49 72 -8 179 -26 239 -41 l109 -27 150 18 c107 12 179 16 249 11 122
-9 200 5 293 49 39 18 97 38 130 44 35 7 110 36 180 70 110 55 229 101 297
115 41 9 58 32 58 80 0 24 7 56 14 72 8 16 18 47 21 69 6 36 3 45 -30 88 l-37
48 26 24 c19 17 26 34 26 60 0 38 -17 59 -68 87 -18 9 -32 22 -32 28 0 17 61
40 100 37 l35 -2 2 -275z m-2401 223 c-5 -53 -23 -93 -41 -93 -11 0 -15 -11
-15 -42 0 -40 -9 -48 -14 -12 -5 32 -26 28 -26 -5 0 -17 5 -31 10 -31 6 0 10
-22 10 -50 0 -27 -4 -50 -8 -50 -5 0 -8 17 -7 38 0 20 -2 42 -6 47 -23 32 -2
119 26 109 11 -5 15 1 15 26 0 24 4 31 14 27 11 -4 13 -1 9 11 -6 14 -4 15 9
4 14 -11 16 -9 13 23 -2 19 1 35 5 35 5 0 8 -17 6 -37z m2161 -3 c0 -22 -4
-37 -8 -34 -5 3 -6 -2 -3 -10 3 -9 1 -16 -5 -16 -7 0 -11 20 -11 50 0 36 4 50
14 50 9 0 13 -13 13 -40z m-2638 -84 c-2 -47 -20 -86 -41 -86 -13 0 -9 29 7
54 9 13 16 39 17 59 1 20 5 34 10 31 5 -4 8 -29 7 -58z m-758 4 c1 -19 -2 -43
-6 -53 -4 -10 -4 -69 -1 -132 5 -77 4 -115 -4 -120 -5 -3 -8 -11 -5 -16 4 -5
1 -9 -4 -9 -12 0 -16 336 -5 365 9 24 22 6 25 -35z m179 25 c0 -7 -7 -18 -15
-25 -10 -8 -12 -17 -5 -29 10 -20 3 -61 -12 -61 -5 0 -8 -6 -7 -12 3 -26 -1
-39 -11 -33 -8 5 -15 -31 -11 -57 0 -5 -4 -8 -10 -8 -7 0 -9 14 -5 38 9 62 18
92 26 87 11 -7 6 69 -5 77 -5 4 -17 8 -25 8 -13 0 -15 -20 -13 -142 2 -108 -1
-138 -10 -129 -7 7 -10 46 -9 116 3 90 1 105 -12 105 -13 0 -16 -15 -16 -86 0
-64 -3 -85 -12 -82 -9 3 -14 32 -16 86 -2 68 0 82 13 82 8 0 16 8 16 18 2 23
2 24 -6 43 -5 13 6 15 70 16 55 1 75 -2 75 -12z m3258 -42 c-4 -34 -28 -43
-28 -10 0 25 7 37 22 37 5 0 8 -12 6 -27z m-2207 -40 c-6 -21 -11 -64 -11 -95
0 -43 -4 -58 -14 -58 -9 0 -12 -7 -9 -20 6 -22 23 -27 24 -7 0 6 4 3 9 -8 12
-28 12 -85 0 -85 -5 0 -10 9 -10 20 0 22 -10 26 -27 9 -17 -17 -27 31 -19 79
4 20 9 55 11 77 3 22 10 51 16 65 6 14 16 35 22 47 15 34 20 20 8 -24z m2314
-4 c-9 -14 -34 2 -28 17 4 11 9 12 19 3 8 -6 11 -15 9 -20z m-27 -34 c-3 -3
-9 2 -12 12 -6 14 -5 15 5 6 7 -7 10 -15 7 -18z m-98 -29 c0 -3 -4 -8 -10 -11
-5 -3 -10 -1 -10 4 0 6 5 11 10 11 6 0 10 -2 10 -4z m-2770 -37 c0 -24 -17
-59 -29 -59 -5 0 -6 11 -3 25 2 14 9 25 14 25 6 0 8 9 5 20 -3 11 -1 18 4 14
5 -3 9 -14 9 -25z m6 -76 c-11 -11 -19 6 -11 24 8 17 8 17 12 0 3 -10 2 -21
-1 -24z m-596 -18 c0 -13 -5 -27 -10 -30 -8 -5 -7 -11 1 -21 9 -11 8 -14 -9
-14 -23 0 -35 41 -21 77 11 29 39 20 39 -12z m574 -13 c3 -5 30 -7 61 -4 37 3
55 1 55 -7 0 -7 27 -11 80 -11 73 0 80 -2 80 -20 0 -18 -7 -20 -79 -20 -52 0
-81 4 -83 12 -3 9 -15 9 -50 0 -26 -7 -61 -12 -77 -12 -17 0 -31 -4 -31 -10 0
-22 -15 -8 -16 15 -1 14 2 22 7 19 5 -3 9 4 9 15 0 24 33 41 44 23z m2375 -94
c1 -38 -1 -68 -3 -68 -2 0 -12 -3 -22 -7 -16 -6 -17 1 -12 75 10 133 36 133
37 0z m406 55 c-3 -51 -5 -55 -17 -51 -18 6 -18 56 -1 62 8 3 11 11 7 17 -4 7
-3 9 3 6 6 -4 9 -19 8 -34z m-62 -19 c7 -7 -24 -44 -37 -44 -5 0 -6 3 -3 7 4
3 1 13 -6 21 -10 13 -8 14 12 7 16 -5 21 -4 17 4 -7 11 6 16 17 5z m197 -4 c0
-5 -4 -10 -10 -10 -5 0 -10 5 -10 10 0 6 5 10 10 10 6 0 10 -4 10 -10z m-2520
-4 c0 -2 -7 -7 -16 -10 -8 -3 -12 -2 -9 4 6 10 25 14 25 6z m130 -78 c19 -49
13 -60 -14 -32 -10 10 -16 32 -15 62 0 26 3 40 6 32 3 -8 14 -36 23 -62z m63
20 c-6 -29 -4 -31 9 -20 20 16 28 -1 21 -40 -4 -19 -11 -25 -28 -24 -16 1 -20
5 -14 12 10 13 -8 74 -22 74 -5 0 -9 7 -9 15 0 9 9 15 25 15 22 0 24 -3 18
-32z m2072 -24 c-17 -13 -36 -19 -51 -16 -15 3 -24 0 -24 -8 0 -7 -7 -10 -16
-6 -8 3 -23 2 -33 -3 -13 -7 -17 -5 -17 9 0 10 4 16 9 13 5 -3 15 4 23 16 11
15 22 19 37 16 15 -4 30 1 42 13 18 18 21 18 38 4 18 -16 18 -17 -8 -38z
m-520 16 c19 -37 19 -70 1 -70 -19 0 -48 59 -40 82 8 26 21 22 39 -12z m2155
-20 c0 -5 -5 -10 -11 -10 -5 0 -7 5 -4 10 3 6 8 10 11 10 2 0 4 -4 4 -10z
m-1550 -29 c0 -9 -46 -31 -64 -31 -7 0 -28 -8 -47 -17 -43 -21 -69 -24 -69 -6
0 15 47 36 61 28 5 -4 6 1 3 9 -6 16 -4 17 48 20 15 1 30 5 34 8 7 8 34 -1 34
-11z m1520 -11 c0 -5 -5 -10 -11 -10 -5 0 -7 5 -4 10 3 6 8 10 11 10 2 0 4 -4
4 -10z m-3035 -38 c-8 -9 -25 20 -18 31 3 5 10 2 15 -7 6 -10 7 -20 3 -24z
m1275 7 c0 -10 7 -19 15 -19 8 0 24 -5 34 -12 18 -11 18 -12 -5 -35 -13 -12
-26 -23 -30 -23 -4 0 -5 3 -1 6 3 3 -1 20 -8 37 -13 31 -35 41 -67 31 -30 -9
-20 -23 12 -19 22 3 33 -2 41 -17 6 -11 7 -23 3 -26 -4 -4 -9 -1 -11 6 -9 25
-103 2 -103 -25 0 -6 -9 -15 -20 -18 -11 -3 -20 -11 -20 -17 0 -5 -6 -8 -14
-5 -8 3 -25 -2 -38 -12 -19 -15 -39 -17 -123 -14 -54 2 -101 6 -104 8 -2 3 37
5 87 5 55 0 93 4 98 11 3 6 15 9 25 6 24 -6 25 12 2 29 -16 11 -13 12 19 7 29
-4 40 -1 54 16 10 11 26 21 36 21 9 0 20 5 23 10 3 6 -5 10 -19 10 -14 0 -28
-4 -31 -10 -3 -5 -17 -10 -31 -10 -13 0 -24 5 -24 10 0 6 14 10 31 10 17 0 28
4 24 10 -4 6 8 10 28 10 18 0 42 8 53 18 37 35 64 36 64 1z m-2052 -23 c23
-16 42 -33 42 -36 0 -4 -31 -10 -68 -13 -122 -12 -132 -16 -132 -49 0 -40 14
-63 48 -77 18 -8 33 -24 40 -45 16 -43 34 -50 65 -25 35 27 45 25 106 -22 58
-43 95 -48 115 -16 8 13 7 24 -6 48 -17 29 -17 30 8 39 14 6 28 19 31 30 3 11
8 20 10 20 3 0 55 -20 116 -44 62 -24 120 -46 129 -49 29 -10 10 -34 -35 -43
-33 -7 -43 -14 -45 -32 -3 -18 3 -25 27 -33 50 -18 41 -45 -19 -59 -30 -7 -57
-21 -67 -34 l-17 -23 -24 29 c-26 31 -160 98 -246 123 -42 12 -87 16 -171 13
-92 -2 -111 -1 -103 10 18 21 15 95 -5 125 -22 34 -47 34 -86 2 -26 -23 -33
-24 -52 -13 -11 7 -30 32 -40 56 -15 35 -28 47 -71 67 -29 14 -66 25 -81 25
-37 0 -73 -37 -87 -91 -25 -102 -39 -127 -88 -155 l-46 -27 -153 157 c-85 86
-151 161 -148 166 4 6 204 9 508 7 l502 -2 43 -29z m1704 -18 c-19 -19 -32 3
-20 32 l10 25 11 -23 c7 -16 7 -26 -1 -34z m1943 43 c3 -6 -50 -66 -117 -134
l-123 -124 -67 4 c-68 5 -68 5 -68 34 0 19 -10 40 -25 55 -21 21 -31 24 -58
19 -18 -4 -42 -13 -54 -21 -30 -19 -33 -18 -33 11 0 33 -39 59 -71 46 -13 -5
-35 -20 -48 -35 -18 -19 -28 -23 -42 -16 -29 16 -48 12 -75 -16 -20 -19 -32
-24 -53 -19 -45 10 -58 -16 -34 -64 l20 -40 -26 13 c-50 26 -177 48 -296 53
-153 7 -189 -3 -238 -62 -30 -35 -49 -48 -95 -62 -63 -18 -234 -22 -357 -8
l-70 7 105 24 c284 64 565 178 763 308 l52 35 502 0 c306 1 504 -3 508 -8z
m120 -31 c-3 -5 -11 -10 -16 -10 -6 0 -7 5 -4 10 3 6 11 10 16 10 6 0 7 -4 4
-10z m-3215 -41 c0 -13 -38 -19 -102 -16 -56 2 -76 12 -40 19 35 8 142 5 142
-3z m-1670 -14 c11 -13 10 -14 -4 -9 -9 3 -16 10 -16 15 0 13 6 11 20 -6z
m1775 -5 c18 -1 -19 -20 -39 -20 -10 0 -25 -8 -32 -17 -8 -11 -13 -13 -14 -5
0 6 -8 12 -17 13 -12 0 -9 4 9 13 21 9 25 15 17 23 -9 9 -1 9 27 2 22 -4 44
-9 49 -9z m3055 0 c-8 -5 -17 -7 -19 -4 -3 3 1 9 9 14 8 5 17 7 19 4 3 -3 -1
-9 -9 -14z m-2545 -3 c11 1 29 4 41 8 15 5 21 2 21 -10 0 -14 -13 -16 -93 -13
-51 2 -90 -1 -87 -6 3 -4 -4 -5 -16 -1 -15 5 -21 2 -21 -9 0 -10 -9 -16 -25
-16 -16 0 -25 -6 -25 -16 0 -15 10 -16 77 -10 43 4 80 12 84 18 6 10 84 8 242
-8 40 -4 72 -2 80 4 7 6 38 7 77 3 l65 -7 -45 -9 c-25 -4 -129 -8 -232 -8
l-188 1 0 -23 c0 -23 2 -24 75 -20 47 3 77 1 81 -6 10 -16 -202 -7 -218 9 -9
9 -5 12 23 14 18 1 -2 5 -46 8 -95 9 -188 31 -187 45 1 15 -33 25 -49 14 -10
-6 -6 -9 16 -10 l30 -1 -30 -8 c-16 -4 -48 -8 -70 -8 l-40 1 35 7 c19 4 32 8
28 9 -10 1 -15 3 -56 12 -17 4 -34 3 -37 -2 -7 -10 -35 0 -35 12 0 5 9 9 21 9
11 0 17 5 14 10 -3 6 1 10 9 10 9 0 16 -4 16 -8 0 -4 26 -5 58 -1 79 10 133
10 107 0 -19 -8 -19 -8 3 -20 30 -16 87 -10 88 9 1 8 2 19 3 23 0 5 43 5 94 1
50 -4 101 -7 112 -7z m622 -8 c19 -19 -11 -43 -37 -29 -23 12 -27 32 -5 24 8
-4 15 -1 15 5 0 14 13 14 27 0z m233 1 c11 -8 7 -9 -15 -4 -37 8 -45 14 -19
14 10 0 26 -5 34 -10z m-753 -6 c-3 -3 -12 -4 -19 -1 -8 3 -5 6 6 6 11 1 17
-2 13 -5z m136 -6 c9 0 17 -3 17 -9 0 -5 -31 -9 -70 -9 -38 0 -70 4 -70 9 0
12 47 20 80 13 14 -3 33 -4 43 -4z m252 -4 c-20 -15 -215 -19 -215 -5 0 11 55
16 163 16 53 0 64 -2 52 -11z m-2175 -45 c0 -21 -4 -39 -9 -39 -5 0 -11 -10
-13 -22 -2 -15 -10 -23 -23 -23 -14 0 -19 6 -17 20 2 11 9 23 14 26 6 4 9 13
6 20 -3 8 -2 23 3 34 7 19 8 19 8 -2 1 -13 5 -23 10 -23 6 0 6 12 1 29 -7 24
-5 29 6 24 9 -3 14 -20 14 -44z m54 13 c7 -12 10 -12 18 -1 10 14 7 0 -10 -41
-5 -13 -4 -13 13 0 17 14 18 13 13 -12 -3 -15 0 -29 6 -32 6 -3 -4 -4 -23 -3
-32 2 -35 -1 -44 -35 -5 -21 -13 -38 -18 -38 -5 0 -9 -13 -9 -29 0 -31 -13
-45 -42 -47 -30 -2 -31 -4 -19 -18 9 -10 8 -15 -3 -19 -8 -3 -16 2 -19 14 -3
12 -17 22 -36 25 -51 10 -36 54 19 58 9 1 14 9 12 20 -2 11 1 16 10 14 7 -3
11 -14 9 -24 -7 -39 -6 -49 9 -49 8 0 16 9 18 20 2 11 9 25 14 32 16 19 48 86
48 99 0 7 8 15 18 19 15 6 16 7 1 18 -9 7 -19 22 -23 34 -6 19 -4 22 11 16 10
-3 22 -13 27 -21z m631 8 c13 -21 -6 -26 -54 -16 -27 5 -48 13 -45 18 7 12 92
10 99 -2z m465 0 c0 -5 11 -10 24 -10 14 0 28 -5 32 -11 4 -7 0 -9 -12 -6 -11
4 -31 9 -46 13 -16 3 -25 10 -22 15 7 12 24 11 24 -1z m-1464 -247 c-4 -4
-236 228 -236 236 0 3 54 -48 120 -114 65 -65 118 -120 116 -122z m791 231
c-3 -3 -12 -4 -19 -1 -8 3 -5 6 6 6 11 1 17 -2 13 -5z m3573 -122 c-67 -67
-120 -117 -118 -111 4 13 231 240 235 235 2 -2 -51 -58 -117 -124z m-3447 81
c-4 -11 -8 -12 -13 -2 -5 8 -23 10 -54 7 -26 -3 -46 -1 -46 4 0 5 5 6 10 3 6
-3 10 -3 10 2 0 4 22 6 49 5 39 -3 48 -7 44 -19z m1203 6 c3 -6 19 -9 35 -5
32 6 40 -9 10 -19 -20 -6 -51 3 -51 15 0 5 -15 11 -32 13 l-33 4 32 1 c17 1
35 -3 39 -9z m-1146 -24 c0 -14 -5 -25 -11 -25 -5 0 -8 4 -4 9 3 5 1 12 -5 16
-5 3 -10 1 -10 -6 0 -7 -2 -10 -5 -7 -9 9 7 38 21 38 8 0 14 -10 14 -25z
m1553 14 c-13 -13 -168 -14 -213 -2 -28 8 -10 11 94 12 88 0 126 -3 119 -10z
m-680 -6 c-7 -2 -21 -2 -30 0 -10 3 -4 5 12 5 17 0 24 -2 18 -5z m2058 -33
c12 0 12 -2 -1 -10 -12 -8 -12 -10 5 -11 11 0 15 -3 8 -5 -7 -3 -21 0 -33 6
-11 6 -20 7 -19 3 4 -21 -2 -33 -16 -33 -8 0 -15 -5 -15 -11 0 -5 -5 -7 -10
-4 -6 4 -8 11 -5 16 4 5 -6 9 -22 10 -15 0 -22 3 -15 6 21 8 4 21 -22 16 -18
-4 -22 -10 -19 -24 4 -14 11 -18 24 -14 11 4 19 2 19 -4 0 -6 -5 -11 -11 -11
-6 0 -9 -9 -6 -19 4 -17 2 -18 -19 -9 -23 11 -29 25 -25 57 2 7 -2 10 -8 6
-15 -9 -14 4 2 19 6 7 31 11 55 10 33 -1 45 2 49 15 11 27 27 31 48 11 12 -11
28 -20 36 -20z m154 30 c4 -6 -8 -10 -30 -10 -22 0 -34 4 -30 10 3 6 17 10 30
10 13 0 27 -4 30 -10z m-295 -16 c0 -2 -7 -4 -15 -4 -8 0 -15 4 -15 10 0 5 7
7 15 4 8 -4 15 -8 15 -10z m-3176 -30 c9 -24 7 -28 -9 -14 -17 14 -20 30 -6
30 5 0 12 -7 15 -16z m-154 -5 c0 -8 6 -7 16 2 15 12 16 11 10 -11 -5 -17 -4
-21 2 -11 6 8 15 10 22 6 8 -5 11 -4 7 3 -5 7 7 8 35 5 51 -7 55 -10 40 -25
-7 -7 -12 -8 -12 -2 0 5 -9 10 -20 10 -11 0 -20 -4 -20 -9 0 -5 -7 -6 -17 -3
-10 4 -26 -3 -45 -21 -28 -27 -37 -53 -18 -53 6 0 10 5 10 12 0 6 3 9 6 5 6
-6 -44 -79 -59 -85 -4 -2 -5 -7 -3 -11 6 -9 -40 -8 -50 2 -4 4 -2 7 4 7 7 0
12 6 12 14 0 23 30 47 51 41 11 -4 19 -2 19 5 0 7 -9 14 -20 17 -25 7 -25 19
0 61 12 19 16 31 10 27 -5 -3 -10 1 -10 9 0 9 7 16 15 16 8 0 15 -5 15 -11z
m3084 -47 c56 -16 78 -29 108 -62 21 -22 38 -43 38 -45 0 -3 -161 -5 -357 -4
-347 1 -356 1 -308 17 34 12 68 34 105 71 l55 54 145 -6 c102 -4 166 -11 214
-25z m-2104 8 c0 -6 16 -20 35 -31 39 -23 45 -39 15 -39 -47 0 -39 -84 11
-111 13 -6 37 -27 55 -45 l31 -34 -68 0 c-60 0 -70 -3 -83 -22 -34 -54 -32
-142 4 -153 15 -5 20 -15 20 -43 l-1 -37 -22 45 c-17 35 -28 46 -50 48 -30 4
-67 -21 -67 -45 0 -19 -9 -16 -31 10 -40 44 -50 84 -40 145 5 31 8 73 7 92 -1
34 1 35 48 47 28 7 59 21 70 32 17 18 18 25 8 57 -10 34 -9 39 8 51 11 8 20
21 20 29 0 8 7 14 15 14 8 0 15 -5 15 -10z m2300 -30 c0 -16 -4 -30 -10 -30
-5 0 -10 14 -10 30 0 17 5 30 10 30 6 0 10 -13 10 -30z m508 21 c-1 -5 -27
-29 -57 -55 -54 -46 -56 -46 -128 -46 -61 0 -74 3 -83 19 -17 32 8 37 57 10
54 -29 78 -19 77 32 0 19 5 37 10 41 15 11 128 10 124 -1z m-2528 -42 c158
-27 160 -27 138 -40 -10 -6 -18 -17 -18 -24 0 -12 -17 -15 -82 -15 -45 0 -110
-7 -146 -16 -63 -16 -64 -16 -89 7 l-25 24 39 5 c30 4 39 10 41 28 2 13 -5 33
-15 44 -18 21 -18 21 7 15 14 -4 81 -16 150 -28z m-1090 -14 c-23 -61 -51
-102 -82 -119 -18 -11 -36 -24 -40 -30 -12 -17 12 -36 38 -30 22 6 24 3 25
-32 0 -22 2 -49 5 -61 2 -13 1 -23 -2 -23 -5 0 -153 97 -168 111 -5 5 13 28
41 53 28 25 58 61 66 79 25 52 54 72 109 76 15 1 16 -3 8 -24z m-252 -19 c-10
-7 -18 -23 -18 -35 0 -11 -4 -21 -10 -21 -5 0 -6 -8 -3 -17 6 -16 5 -16 -10
-5 -9 8 -21 11 -27 7 -5 -3 -10 0 -10 8 0 8 8 17 18 19 10 3 26 22 36 43 14
28 21 34 29 25 9 -9 8 -14 -5 -24z m492 -6 c0 -11 9 -42 19 -70 l19 -50 -37 0
c-21 0 -85 3 -143 6 l-105 7 31 63 30 64 93 0 c86 0 93 -1 93 -20z m-705 -103
c19 -18 68 -54 190 -141 115 -81 389 -233 503 -279 23 -9 42 -21 42 -27 0 -6
-6 -7 -17 -1 -10 5 -67 32 -128 61 -60 29 -163 85 -228 124 -65 39 -130 78
-144 86 -14 8 -39 27 -56 42 -17 15 -34 25 -38 23 -4 -3 -9 2 -13 10 -3 8 -11
15 -18 15 -7 0 -19 9 -26 21 -7 12 -15 19 -18 16 -2 -2 -24 13 -47 34 -23 22
-49 42 -57 45 -8 3 -28 22 -45 42 -30 37 -30 37 25 -8 30 -25 63 -53 75 -63z
m886 56 l94 -47 -45 -7 c-25 -4 -66 -8 -92 -8 l-46 -1 -16 47 c-9 26 -16 50
-16 55 0 17 30 7 121 -39z m3209 43 c0 -6 -61 -66 -67 -66 -8 0 51 68 60 69 4
1 7 -1 7 -3z m-2160 -16 c17 -5 1 -8 -50 -8 -54 0 -67 2 -45 8 39 10 64 10 95
0z m485 0 c48 -6 33 -7 -80 -8 -94 -1 -135 2 -125 8 17 11 117 11 205 0z
m1288 3 c-7 -2 -21 -2 -30 0 -10 3 -4 5 12 5 17 0 24 -2 18 -5z m-1598 -72
c-4 -7 -42 -10 -98 -9 l-92 2 85 3 c47 2 89 8 94 13 12 12 20 5 11 -9z m841 4
c-4 -12 0 -14 22 -10 15 3 21 2 13 -1 -11 -5 -11 -8 0 -16 10 -7 6 -8 -11 -3
-14 4 -33 7 -42 7 -15 -1 -16 1 0 19 20 23 26 24 18 4z m1047 -10 c-10 -13
-22 -25 -27 -25 -5 0 -16 -7 -25 -15 -50 -46 -61 -55 -66 -55 -10 0 -95 -64
-95 -72 0 -4 -6 -8 -14 -8 -8 0 -16 -3 -18 -7 -1 -5 -20 -16 -40 -27 -20 -10
-47 -28 -60 -40 -12 -11 -25 -20 -28 -18 -3 1 -12 -4 -21 -12 -9 -8 -26 -17
-38 -21 -11 -3 -27 -12 -33 -19 -17 -15 -320 -160 -360 -171 -5 -2 -11 -4 -15
-5 -5 -1 -11 -2 -15 -1 -5 0 -8 -3 -8 -8 0 -8 -56 -25 -72 -22 -5 0 -8 -4 -8
-9 0 -6 -11 -10 -24 -10 -14 0 -27 -4 -30 -9 -5 -7 -55 -21 -83 -22 -5 -1 -12
-4 -18 -9 -9 -7 -87 -30 -155 -44 -14 -3 -65 -15 -115 -26 -183 -41 -406 -63
-655 -64 -129 -1 -246 1 -260 5 -14 5 -65 13 -115 19 -49 6 -106 13 -125 16
-53 7 -193 34 -210 41 -8 3 -19 7 -25 8 -5 1 -12 3 -15 4 -3 2 -14 4 -25 5
-44 6 -236 64 -300 91 -16 7 -58 23 -92 36 -35 13 -63 27 -63 31 0 11 2 11 82
-21 40 -15 105 -38 143 -51 39 -12 74 -25 80 -28 5 -3 16 -7 25 -8 8 -1 69
-16 135 -33 419 -107 860 -124 1306 -51 371 61 721 186 1066 379 78 43 268
173 353 240 41 33 76 60 78 60 2 1 -5 -10 -15 -24z m-131 3 c-8 -8 -57 -12
-147 -13 -74 -1 -138 -4 -141 -8 -4 -4 13 -7 37 -8 l44 -1 -44 -9 c-56 -11
-64 -19 -18 -19 20 0 39 -4 42 -10 3 -5 17 -10 29 -10 15 0 26 -7 29 -20 4
-18 1 -19 -26 -14 -17 3 -34 10 -38 15 -3 6 -15 9 -25 8 -11 -2 -32 0 -48 5
-23 6 -27 9 -15 17 10 6 7 9 -13 9 -33 0 -58 9 -58 22 0 5 4 7 9 3 5 -3 12 -1
15 3 3 5 -18 12 -47 16 -70 8 -319 6 -385 -3 -29 -4 -55 -4 -58 1 -7 10 -19 9
311 17 497 12 560 12 547 -1z m-1962 -8 c0 -7 -27 -8 -78 -4 -59 5 -85 3 -103
-7 -13 -8 -40 -14 -59 -13 -19 0 -63 1 -97 2 -107 3 -70 21 43 20 58 0 108 3
111 6 11 11 183 7 183 -4z m418 3 c-38 -2 -98 -2 -135 0 -38 2 -7 3 67 3 74 0
105 -1 68 -3z m169 1 c-3 -3 -12 -4 -19 -1 -8 3 -5 6 6 6 11 1 17 -2 13 -5z
m179 -4 c8 0 14 -7 14 -15 0 -12 -4 -13 -19 -5 -11 5 -35 10 -53 11 -31 1 -31
1 -8 9 14 4 31 6 38 4 8 -2 20 -4 28 -4z m195 -2 c0 -10 2 -10 6 0 2 6 11 12
19 12 9 0 12 -5 8 -11 -3 -6 0 -15 7 -20 9 -5 1 -6 -21 -3 -19 3 -69 8 -110
12 -72 6 -73 7 -30 13 80 11 120 10 121 -3z m-1371 -13 c0 -8 -7 -15 -15 -15
-13 0 -14 3 -3 15 16 18 18 18 18 0z m1950 -5 c11 -7 11 -10 2 -10 -7 0 -11
-4 -7 -10 7 -12 -64 -3 -81 10 -7 6 -50 9 -105 6 -70 -3 -79 -2 -34 3 93 11
208 12 225 1z m-307 -7 c-7 -2 -19 -2 -25 0 -7 3 -2 5 12 5 14 0 19 -2 13 -5z
m600 -13 c5 0 5 5 2 10 -3 6 -2 10 4 10 16 0 22 -18 9 -23 -10 -4 -10 -8 1
-15 10 -7 10 -11 1 -17 -6 -4 -22 2 -34 14 -13 12 -30 19 -38 16 -9 -4 -15 0
-15 8 0 12 7 13 31 6 17 -5 35 -9 39 -9z m80 9 c-8 -8 -16 -8 -30 0 -16 9 -14
10 12 11 21 0 26 -3 18 -11z m-2780 -100 c-5 -18 -15 -36 -23 -40 -8 -4 -80
-42 -160 -84 l-144 -77 -122 63 c-67 34 -133 71 -146 81 -23 18 -20 18 116 16
153 -3 150 -5 161 65 4 28 11 37 25 37 11 0 20 -6 20 -12 0 -7 5 -29 10 -50
13 -46 43 -57 139 -50 61 4 75 8 87 28 12 18 13 30 5 60 -6 21 -9 38 -8 38 1
1 11 6 22 12 18 10 20 8 23 -21 2 -18 -1 -48 -5 -66z m-395 55 c16 -3 22 -12
22 -29 0 -23 -4 -25 -47 -25 -99 0 -151 11 -157 33 -3 11 -3 23 -1 26 4 7 146
3 183 -5z m313 -20 l6 -32 -59 -6 c-66 -8 -88 2 -88 39 0 30 12 34 80 32 52
-2 54 -3 61 -33z m1984 11 c187 -2 358 -6 380 -9 39 -4 192 -37 269 -57 l39
-11 -43 -24 c-247 -141 -457 -229 -738 -310 -84 -24 -188 -49 -230 -55 -42 -6
-80 -13 -84 -15 -62 -39 -722 -53 -918 -21 -146 24 -300 55 -355 71 -27 8 -84
23 -125 34 -72 19 -208 67 -314 109 -47 19 -49 21 -28 32 12 6 70 36 129 67
97 50 108 53 116 37 5 -10 19 -28 30 -40 19 -21 19 -24 3 -47 -21 -32 -21
-100 0 -120 22 -23 54 -20 95 8 34 24 36 27 38 87 2 61 6 78 16 68 6 -6 36
-138 36 -159 1 -48 9 -60 43 -60 18 0 38 6 44 13 7 8 11 58 10 131 -2 113 -3
118 -27 139 -16 14 -25 30 -23 43 2 17 14 23 70 33 38 7 87 9 112 5 57 -9 155
-47 176 -69 9 -9 29 -18 44 -21 19 -4 32 -17 43 -43 22 -50 22 -56 -8 -75 -42
-27 -65 -75 -65 -132 0 -38 5 -55 20 -69 18 -17 21 -17 66 1 25 11 49 28 53
38 7 16 10 12 22 -24 15 -47 46 -72 79 -63 27 7 44 56 37 113 -4 34 -2 52 8
60 7 6 52 14 100 17 l88 6 -7 -84 c-4 -50 -3 -90 3 -99 13 -18 83 -19 105 -1
8 7 19 35 22 62 4 27 10 49 15 49 4 0 18 -18 30 -40 38 -68 105 -67 103 1 0
19 -4 46 -8 60 -7 26 -7 26 38 19 29 -4 57 -18 81 -39 43 -38 76 -36 113 5 27
31 27 45 -1 115 l-23 56 23 -5 c63 -12 127 61 121 140 -4 56 -28 62 -58 13
-34 -54 -122 -84 -150 -50 -7 8 -22 15 -34 15 -41 0 -62 12 -75 41 -7 17 -26
39 -42 48 -16 10 -27 20 -25 22 2 2 53 0 113 -4 59 -4 261 -10 448 -12z
m-1160 -15 c-48 -22 -71 -24 -116 -8 l-34 13 40 6 c22 3 65 6 95 7 l55 1 -40
-19z m715 -141 c0 -21 -97 -26 -123 -6 -15 10 -6 12 53 12 38 0 70 -3 70 -6z
m-1367 -157 c-15 -11 -18 -11 -21 4 -2 9 4 32 15 51 l18 34 3 -37 c3 -28 -1
-42 -15 -52z"/>
<path d="M8809 11273 c-23 -48 -47 -100 -54 -114 -25 -47 -7 -55 87 -34 45 9
88 22 95 27 17 13 -48 202 -71 206 -12 3 -27 -19 -57 -85z m64 -55 c6 -22 -6
-38 -30 -38 -16 0 -16 3 -1 35 14 31 24 32 31 3z"/>
<path d="M9340 10966 c-6 -8 -10 -25 -8 -38 2 -19 9 -23 38 -23 29 0 36 4 38
23 4 28 -14 52 -38 52 -10 0 -23 -7 -30 -14z"/>
<path d="M8827 11003 c-4 -3 -7 -30 -7 -60 l0 -53 34 0 c32 0 34 2 37 38 7 66
1 82 -30 82 -15 0 -31 -3 -34 -7z"/>
<path d="M8727 10973 c-15 -4 -17 -13 -15 -56 3 -50 4 -52 33 -52 29 0 30 2
33 49 3 44 -8 69 -28 65 -3 -1 -13 -3 -23 -6z"/>
<path d="M8794 10859 c-12 -20 12 -30 62 -27 37 2 50 7 52 21 3 14 -5 17 -52
17 -30 0 -58 -5 -62 -11z"/>
<path d="M9110 10710 l0 -41 43 3 c41 3 42 4 42 38 0 34 -1 35 -42 38 l-43 3
0 -41z"/>
<path d="M8370 10579 c0 -6 -6 -9 -13 -6 -8 3 -14 -3 -14 -14 -1 -10 2 -19 7
-19 5 0 15 -3 23 -6 15 -5 27 21 20 44 -6 15 -23 16 -23 1z"/>
<path d="M9145 10361 c-6 -5 -23 -11 -40 -14 l-30 -4 31 -2 c18 0 37 6 44 14
14 16 10 21 -5 6z"/>
<path d="M8452 10299 l2 -64 3 58 4 58 32 -6 c38 -8 57 -22 57 -41 0 -16 7
-20 50 -28 l35 -6 -31 13 c-17 6 -42 25 -55 40 -15 17 -38 30 -61 34 l-38 6 2
-64z"/>
<path d="M8860 10334 c0 -5 17 -10 38 -11 20 0 60 -4 87 -8 39 -5 54 -3 70 10
19 16 19 16 -4 5 -13 -7 -40 -10 -60 -7 -20 3 -57 9 -83 13 -27 3 -48 3 -48
-2z"/>
<path d="M8740 10270 c-41 -10 -66 -18 -55 -19 24 -1 134 24 142 33 8 8 2 7
-87 -14z"/>
<path d="M8980 10263 c0 -5 16 -8 35 -9 22 0 31 3 23 8 -16 10 -58 10 -58 1z"/>
<path d="M8938 10235 c-3 -3 -32 -9 -64 -14 -49 -7 -52 -9 -19 -9 39 0 136 25
104 27 -9 1 -18 -1 -21 -4z"/>
<path d="M8718 10203 c17 -2 47 -2 65 0 17 2 3 4 -33 4 -36 0 -50 -2 -32 -4z"/>
<path d="M12505 10170 c-14 -6 -4 -9 34 -9 30 -1 52 1 50 3 -11 9 -66 13 -84
6z"/>
<path d="M12157 9929 c-33 -20 -47 -76 -52 -223 -3 -94 -11 -158 -22 -194 -13
-40 -15 -59 -7 -80 16 -42 0 -486 -19 -537 -12 -31 -13 -45 -3 -65 7 -16 10
-64 8 -128 -3 -98 -5 -104 -28 -114 -32 -15 -40 -56 -36 -210 l3 -127 -32 -16
c-30 -16 -31 -19 -26 -63 3 -31 12 -52 27 -64 22 -18 23 -25 27 -246 l5 -227
-64 -18 c-114 -33 -198 -98 -198 -154 0 -10 9 -32 19 -49 94 -154 657 -195
918 -68 95 46 129 118 83 177 -25 32 -144 93 -198 102 -39 6 -40 7 -44 53 -3
26 -6 130 -7 232 -2 180 -3 186 -33 258 -17 40 -40 85 -53 100 -32 40 -34 53
-20 117 12 50 12 63 -1 93 -7 19 -14 44 -14 55 0 12 -12 30 -26 42 -24 19 -25
26 -27 120 -1 64 3 115 12 142 12 38 12 47 -2 80 -20 48 -43 495 -28 535 12
32 4 66 -22 95 -17 20 -20 39 -23 160 -3 128 -5 142 -29 186 -28 49 -50 58
-88 36z m-127 -2374 c0 -16 -6 -25 -15 -25 -15 0 -21 31 -8 43 13 14 23 6 23
-18z m133 5 c4 -14 14 -20 34 -20 30 -1 63 -20 63 -39 0 -12 -23 -15 -34 -4
-4 4 -21 8 -39 9 -18 0 -40 4 -49 8 -25 11 -23 -9 4 -34 26 -24 20 -33 -16
-24 -22 5 -25 10 -20 28 6 20 6 20 -13 4 -21 -19 -53 -24 -53 -8 0 5 6 7 14 4
24 -9 29 16 8 35 -13 11 -18 22 -13 30 6 9 11 10 15 2 10 -15 43 -14 49 2 3 7
6 4 6 -6 1 -24 21 -11 21 14 0 25 16 25 23 -1z m125 -17 c-8 -9 -7 -13 2 -13
8 0 11 -3 7 -6 -3 -3 -12 -2 -20 3 -11 6 -12 14 -5 33 7 19 11 22 18 10 5 -9
5 -19 -2 -27z m236 28 c3 -4 -3 -16 -14 -26 -11 -10 -20 -24 -20 -32 0 -7 -4
-13 -10 -13 -5 0 -10 7 -10 15 0 8 -7 15 -15 15 -21 0 -19 -27 4 -40 11 -5 34
-7 53 -4 18 3 28 2 22 -3 -6 -4 -14 -17 -18 -27 -5 -15 -9 -17 -18 -8 -7 7
-19 12 -28 12 -9 0 -24 14 -34 30 -16 28 -20 30 -61 25 -45 -7 -58 1 -60 37
-2 22 11 24 19 3 7 -20 35 -19 58 2 16 14 18 15 18 0 0 -21 20 -33 30 -17 4 6
19 13 32 13 16 1 24 7 21 15 -6 13 23 17 31 3z m-527 -61 c4 -17 8 -18 20 -8
12 10 14 7 11 -17 -1 -16 -8 -30 -13 -32 -11 -3 -45 47 -45 66 0 19 22 12 27
-9z m553 10 c0 -5 -7 -10 -15 -10 -8 0 -15 5 -15 10 0 6 7 10 15 10 8 0 15 -4
15 -10z m-252 -45 c-8 -19 -8 -28 3 -41 12 -15 12 -17 0 -13 -8 3 -19 14 -25
25 -6 10 -15 22 -21 26 -5 4 -3 9 5 12 13 4 40 13 47 15 2 1 -2 -10 -9 -24z
m-68 3 c0 -28 -13 -58 -24 -58 -6 0 -17 9 -24 20 -11 17 -9 20 14 26 19 5 22
9 12 15 -10 7 -9 9 5 9 9 0 17 -6 17 -12z m120 2 c0 -5 -7 -10 -15 -10 -8 0
-15 -8 -15 -17 0 -13 -3 -14 -11 -6 -8 8 -8 15 2 27 16 17 39 21 39 6z m70
-14 c0 -21 -11 -25 -37 -15 -33 12 -28 29 7 29 19 0 30 -5 30 -14z m-333 -42
c-3 -3 -12 -4 -19 -1 -8 3 -5 6 6 6 11 1 17 -2 13 -5z"/>
<path d="M12188 7523 c6 -2 18 -2 25 0 6 3 1 5 -13 5 -14 0 -19 -2 -12 -5z"/>
<path d="M11580 7820 c0 -5 9 -10 20 -10 11 0 20 5 20 10 0 6 -9 10 -20 10
-11 0 -20 -4 -20 -10z"/>
<path d="M11120 7092 c0 -5 7 -13 16 -16 10 -4 14 -1 12 6 -5 15 -28 23 -28
10z"/>
<path d="M8443 6753 c9 -9 20 -13 24 -9 4 4 1 11 -7 16 -25 16 -35 11 -17 -7z"/>
<path d="M13168 11957 c-104 -39 -182 -110 -227 -206 -23 -50 -26 -67 -26
-171 0 -106 3 -121 31 -186 69 -159 204 -313 331 -376 275 -138 561 5 580 288
3 46 0 104 -7 137 -26 127 -157 326 -274 416 -85 66 -184 103 -286 108 -56 2
-97 -1 -122 -10z m369 -212 c98 -29 178 -154 158 -247 -31 -141 -257 -321
-404 -321 -66 0 -106 18 -149 68 -71 80 -85 161 -44 246 50 103 219 235 332
259 52 11 52 11 107 -5z"/>
<path d="M6836 11538 c-29 -48 -426 -771 -426 -778 0 -8 197 -120 210 -120 4
0 12 11 18 26 11 22 8 30 -20 65 -45 57 -50 126 -13 200 15 30 29 56 31 58 3
4 406 -217 497 -272 54 -33 60 -60 27 -115 -11 -18 -20 -36 -20 -41 0 -8 50
-34 55 -29 2 2 62 110 135 241 125 226 131 239 114 252 -29 22 -41 18 -64 -23
-12 -21 -30 -44 -41 -50 -23 -14 -40 -6 -279 128 -85 47 -183 101 -217 120
-35 18 -63 38 -63 45 0 20 62 107 93 129 23 17 42 21 98 19 58 -1 71 2 79 17
6 10 10 23 10 28 0 9 -191 122 -205 122 -2 0 -11 -10 -19 -22z"/>
<path d="M13475 10788 c-11 -6 -22 -13 -24 -14 -2 -2 20 -80 49 -174 54 -172
60 -181 99 -161 16 9 16 16 8 59 -16 75 -8 86 58 79 30 -3 59 -8 64 -12 10 -6
101 -275 101 -298 0 -7 -22 -35 -50 -62 -55 -54 -61 -53 -84 10 -11 33 -18 40
-37 37 -13 -1 -27 -6 -32 -11 -8 -8 136 -468 152 -484 4 -4 18 -4 31 1 21 8
24 15 22 53 -3 57 4 67 312 403 222 243 262 295 239 309 -5 3 -179 42 -387 87
-209 44 -397 90 -418 101 -22 11 -48 36 -60 55 -11 18 -21 34 -21 34 -1 0 -11
-6 -22 -12z m498 -275 c37 -8 67 -18 67 -22 0 -3 -31 -40 -69 -81 l-68 -75
-27 85 c-15 47 -29 93 -32 104 -7 20 -3 20 129 -11z"/>
<path d="M6326 10503 c-6 -22 -55 -201 -102 -376 -19 -71 -32 -132 -29 -137 3
-4 16 -10 30 -12 22 -5 26 -1 35 31 13 50 37 81 63 81 42 0 568 -147 584 -163
14 -14 15 -23 5 -68 -13 -56 -10 -65 27 -71 22 -3 25 6 93 256 38 143 67 265
64 273 -3 7 -17 13 -30 13 -20 0 -27 -7 -32 -27 -14 -57 -33 -83 -62 -83 -38
0 -552 138 -579 156 -26 17 -27 20 -12 81 10 37 9 47 -2 54 -23 14 -47 10 -53
-8z"/>
<path d="M6080 9707 c0 -26 6 -36 25 -45 31 -14 31 -28 -1 -149 -80 -301 27
-607 251 -718 52 -25 71 -29 145 -30 76 0 92 3 151 32 113 56 194 164 235 314
13 47 18 102 18 209 1 165 -15 227 -82 332 l-37 58 -62 0 -62 0 55 -72 c66
-88 94 -169 94 -272 0 -86 -18 -154 -54 -201 -76 -99 -306 -129 -439 -57 -174
93 -196 364 -42 500 24 21 59 43 77 48 29 9 33 14 33 44 l0 35 -152 3 -153 3
0 -34z"/>
<path d="M14112 9720 c-63 -13 -139 -58 -184 -109 -52 -60 -115 -190 -133
-276 -29 -140 -13 -375 37 -535 l24 -75 112 -5 c119 -5 132 -11 132 -57 0 -39
11 -53 41 -53 l29 0 0 73 c0 39 -3 156 -7 260 l-6 187 -27 0 c-26 0 -28 -3
-32 -50 -7 -74 -16 -80 -120 -80 -106 0 -103 -4 -103 130 0 86 3 101 30 155
27 54 36 63 95 93 160 80 402 42 480 -76 102 -153 30 -418 -135 -496 -28 -14
-35 -23 -35 -46 0 -16 4 -31 9 -34 4 -3 74 -3 155 1 l146 6 0 33 c0 24 -5 34
-20 39 -31 10 -33 44 -8 136 29 108 31 299 5 399 -43 164 -140 295 -259 350
-70 32 -158 44 -226 30z"/>
<path d="M6619 8126 l-32 -105 -115 -3 -116 -3 90 -64 c49 -36 91 -66 93 -67
2 -2 -13 -50 -32 -108 -20 -58 -33 -106 -30 -106 3 0 42 27 88 60 46 33 88 60
93 60 6 0 47 -27 92 -61 45 -33 84 -58 87 -55 3 2 -9 47 -26 98 -17 51 -31 98
-31 104 0 6 39 39 88 75 l87 64 -113 5 -114 5 -30 95 c-16 52 -34 99 -38 104
-4 4 -23 -40 -41 -98z"/>
<path d="M14020 8205 c-6 -16 -23 -65 -36 -107 l-25 -78 -109 0 c-61 0 -110
-3 -110 -7 1 -5 39 -35 85 -68 47 -32 85 -61 85 -64 0 -2 -14 -47 -30 -99 -17
-52 -29 -99 -28 -104 2 -5 40 18 86 52 45 33 88 60 95 60 6 0 48 -27 91 -60
44 -33 81 -58 84 -56 2 3 -11 50 -28 106 -18 57 -28 105 -23 109 5 3 46 33 92
66 l83 60 -116 3 -116 3 -33 107 c-34 105 -35 106 -47 77z"/>
<path d="M6958 7366 c-98 -35 -192 -118 -231 -204 -32 -71 -30 -180 4 -253 33
-69 88 -127 154 -159 42 -21 65 -25 140 -25 78 0 97 4 146 28 115 56 187 146
207 257 36 197 -113 371 -316 370 -37 -1 -83 -7 -104 -14z m248 -105 c57 -26
87 -72 92 -140 3 -50 0 -61 -29 -105 -37 -55 -128 -127 -207 -163 -174 -81
-330 52 -252 213 37 75 145 158 255 196 64 22 90 22 141 -1z"/>
<path d="M13326 7141 c-42 -71 -76 -133 -76 -139 0 -26 35 -21 61 8 15 16 32
30 36 30 14 0 416 -239 437 -260 19 -19 19 -21 3 -55 -16 -33 -16 -35 4 -46
11 -6 22 -9 24 -7 9 9 255 432 255 438 0 11 -140 160 -150 160 -5 0 2 -33 16
-72 17 -48 24 -86 21 -111 -6 -41 -80 -175 -102 -184 -12 -4 -327 173 -407
229 -31 21 -36 51 -16 93 10 22 9 28 -3 36 -8 5 -17 9 -21 9 -3 0 -40 -58 -82
-129z"/>
<path d="M7557 6833 c-14 -16 -14 -20 4 -42 10 -13 19 -31 19 -41 0 -19 -335
-348 -370 -364 -15 -7 -26 -4 -43 12 -27 26 -40 27 -57 7 -10 -12 6 -33 93
-122 100 -102 107 -107 123 -91 16 16 16 19 2 35 -37 42 -32 54 58 143 l85 85
40 -45 c50 -58 55 -74 30 -109 -19 -27 -20 -29 -3 -44 16 -14 24 -8 106 70 82
78 87 86 72 101 -15 15 -18 15 -45 -1 -16 -9 -35 -17 -43 -17 -16 0 -98 80
-98 95 0 6 33 40 74 77 l73 67 35 -37 c91 -98 103 -125 73 -181 -12 -24 -12
-31 0 -47 13 -18 18 -16 76 43 l63 62 -173 180 c-96 100 -174 181 -176 181 -1
0 -9 -8 -18 -17z"/>
<path d="M12984 6725 c-3 -8 49 -147 115 -309 67 -161 121 -302 121 -313 0
-10 -7 -28 -15 -40 -13 -18 -12 -22 3 -36 17 -15 23 -11 101 67 73 74 80 84
66 96 -14 11 -21 11 -47 -4 -37 -23 -48 -14 -78 63 l-21 55 78 78 79 78 62
-26 c63 -28 71 -39 51 -76 -9 -16 -7 -24 5 -36 15 -15 24 -9 111 78 52 52 95
100 95 106 0 6 -7 17 -15 24 -13 10 -19 10 -33 -4 -10 -9 -32 -16 -48 -16 -16
0 -157 52 -313 115 -157 63 -291 115 -298 115 -8 0 -16 -7 -19 -15z m239 -200
c42 -16 77 -34 77 -40 0 -12 -98 -111 -103 -104 -8 10 -67 160 -67 170 0 6 4
9 8 7 5 -1 43 -16 85 -33z"/>
<path d="M8010 6365 c-10 -12 -7 -20 19 -44 40 -37 48 -20 -132 -268 -95 -131
-147 -193 -159 -193 -10 0 -30 7 -44 16 -23 16 -26 16 -39 -2 -17 -23 -21 -19
125 -124 94 -67 103 -72 118 -57 15 15 14 19 -13 47 -25 26 -27 33 -17 54 13
30 120 176 129 176 3 0 27 -16 54 -36 39 -28 49 -42 49 -64 0 -16 -4 -32 -10
-35 -16 -10 -12 -33 8 -44 16 -8 29 5 89 88 65 90 70 100 55 115 -14 14 -19
13 -50 -11 -34 -26 -35 -26 -66 -9 -17 9 -44 28 -60 40 l-28 24 57 78 c32 44
59 81 61 83 7 8 114 -71 140 -102 25 -29 27 -61 8 -110 -2 -7 4 -17 15 -24 17
-11 24 -5 66 59 26 39 43 74 38 78 -24 22 -385 280 -392 280 -5 0 -14 -7 -21
-15z"/>
<path d="M12453 6232 c-111 -81 -202 -152 -203 -158 -1 -27 27 -35 57 -18 16
10 37 15 45 12 15 -6 261 -336 296 -398 16 -28 16 -29 -13 -60 -27 -28 -28
-32 -13 -46 19 -19 -7 -35 253 155 94 68 171 124 172 125 1 1 -12 45 -28 98
-28 91 -32 96 -50 85 -16 -10 -19 -23 -19 -78 0 -53 -4 -72 -21 -94 -28 -35
-138 -115 -159 -115 -14 0 -122 138 -136 173 -6 18 106 97 139 97 13 0 32 -9
42 -20 21 -24 38 -25 54 -6 10 12 -1 33 -58 110 -39 53 -75 96 -79 96 -4 0
-13 -4 -21 -9 -12 -8 -13 -14 -3 -36 7 -14 12 -34 12 -45 0 -18 -52 -66 -111
-104 l-26 -17 -61 82 c-34 45 -59 86 -56 90 12 20 164 119 182 119 11 0 34
-12 51 -26 26 -21 34 -24 46 -14 8 7 15 17 15 22 0 10 -88 122 -99 125 -3 1
-97 -65 -208 -145z"/>
<path d="M8556 5984 c-9 -22 -9 -22 24 -39 18 -9 30 -23 30 -35 0 -11 -49
-122 -109 -245 -102 -209 -111 -225 -136 -225 -14 0 -35 5 -45 10 -15 8 -21 6
-30 -11 -7 -11 -10 -22 -8 -24 2 -1 62 -32 135 -69 125 -62 133 -65 143 -47
14 27 14 29 -20 46 -19 10 -30 23 -30 36 0 12 49 122 110 245 101 206 111 224
135 224 15 0 35 -5 45 -10 15 -8 21 -6 30 11 7 11 10 22 8 24 -12 11 -251 125
-262 125 -8 0 -17 -7 -20 -16z"/>
<path d="M12038 5979 c-10 -5 -18 -18 -18 -28 0 -15 -12 -21 -61 -30 -82 -14
-142 -51 -175 -107 -22 -38 -26 -54 -22 -103 5 -69 32 -113 90 -142 31 -16 73
-23 177 -31 94 -6 145 -15 165 -26 91 -53 22 -172 -98 -172 -57 0 -105 23
-132 65 -16 25 -48 33 -59 15 -4 -7 85 -201 100 -218 2 -2 13 -1 25 3 14 5 20
13 18 28 -3 19 3 22 50 29 192 28 297 189 208 320 -41 62 -91 80 -249 90 -77
4 -151 14 -166 21 -59 28 -47 107 22 141 60 29 118 16 172 -40 45 -46 52 -49
73 -35 11 6 1 33 -42 120 -31 61 -57 111 -59 111 -1 0 -10 -5 -19 -11z"/>
<path d="M9130 5711 c-97 -31 -194 -123 -231 -219 -32 -81 -32 -197 0 -270 48
-107 169 -182 295 -182 50 0 75 6 123 30 33 17 68 39 78 50 17 19 17 22 3 36
-14 14 -21 13 -69 -14 -69 -39 -107 -46 -161 -32 -153 40 -203 176 -129 353
75 177 207 233 329 140 40 -30 58 -68 67 -145 5 -37 13 -59 23 -63 8 -3 17 -3
20 -1 6 6 62 207 62 222 0 20 -32 25 -50 9 -22 -20 -22 -20 -61 15 -59 52
-116 74 -199 77 -41 1 -86 -1 -100 -6z"/>
<path d="M11115 5625 c-5 -2 -72 -18 -148 -36 -127 -29 -138 -33 -135 -53 3
-18 10 -21 45 -21 23 0 44 -3 47 -6 12 -11 117 -473 114 -499 -2 -19 -11 -27
-36 -35 -27 -8 -32 -14 -30 -35 2 -19 8 -24 23 -22 31 5 478 111 481 115 2 1
6 49 10 106 l7 103 -23 -4 c-18 -2 -25 -13 -35 -51 -20 -78 -44 -97 -162 -127
-101 -25 -100 -26 -112 13 -25 79 -102 432 -99 456 2 21 11 29 46 40 31 9 42
17 38 28 -3 8 -6 19 -6 24 0 9 -7 10 -25 4z"/>
<path d="M9687 5569 c-6 -21 -3 -23 45 -33 18 -4 30 -14 33 -29 3 -12 -8 -130
-24 -261 -32 -261 -36 -273 -93 -260 -28 6 -28 5 -32 -38 -1 -9 43 -18 144
-29 80 -10 148 -15 153 -12 12 7 8 43 -5 47 -7 3 -25 7 -40 10 -24 5 -28 12
-28 39 0 63 51 469 61 488 7 14 21 19 49 19 36 0 40 3 40 25 0 17 -6 25 -17
25 -10 0 -67 7 -128 15 -144 19 -152 19 -158 -6z"/>
<path d="M10391 5528 c-5 -13 -48 -124 -96 -248 -124 -322 -132 -338 -171
-355 -26 -10 -31 -18 -27 -34 5 -19 12 -21 97 -21 115 0 138 6 134 34 -2 16
-11 22 -35 24 -28 3 -33 7 -32 30 0 15 8 47 18 72 22 53 34 57 159 59 l83 1
24 -52 c33 -71 33 -96 -2 -100 -22 -2 -28 -8 -28 -28 0 -28 -16 -26 175 -22
100 2 100 2 100 27 0 21 -6 27 -31 32 -40 8 -47 19 -194 338 -100 216 -124
261 -143 263 -15 2 -25 -3 -31 -20z m57 -281 c19 -43 33 -79 31 -81 -8 -8
-144 -10 -143 -2 2 26 60 166 67 163 5 -1 25 -38 45 -80z"/>
<path d="M13699 13457 c-15 -18 -122 -138 -238 -267 -116 -129 -211 -238 -211
-241 0 -15 382 -350 394 -346 7 3 30 26 51 52 l38 46 -69 62 c-38 34 -94 85
-124 114 l-55 52 21 23 c298 332 364 408 364 416 0 13 -122 122 -135 121 -5 0
-22 -15 -36 -32z"/>
<path d="M6740 13294 c-107 -91 -195 -171 -195 -179 0 -18 454 -557 466 -553
13 5 399 331 399 338 0 3 -20 28 -44 55 -35 39 -48 48 -59 40 -9 -5 -68 -55
-132 -109 -115 -98 -117 -100 -133 -79 -10 11 -34 41 -56 67 -46 55 -52 44 95
167 54 46 99 86 99 90 0 6 -53 74 -79 102 -5 4 -61 -37 -126 -93 -65 -55 -121
-100 -124 -100 -4 0 -24 20 -44 45 l-37 44 130 111 130 112 -29 36 c-65 83
-43 91 -261 -94z"/>
<path d="M14180 13005 l-44 -45 42 -43 42 -43 -57 -54 c-32 -29 -109 -103
-171 -164 l-113 -111 -41 43 -40 44 -36 -34 c-20 -18 -41 -38 -48 -44 -10 -9
21 -46 133 -163 79 -83 150 -151 157 -151 13 0 86 71 86 83 0 4 -17 26 -37 48
l-38 42 165 158 c91 88 170 159 176 159 7 0 24 -16 38 -35 15 -19 33 -35 39
-35 7 0 31 19 54 43 l42 42 -147 153 c-81 84 -149 153 -152 152 -3 0 -26 -20
-50 -45z"/>
<path d="M6227 12820 c-87 -107 -85 -99 -50 -161 100 -178 153 -289 138 -289
-13 0 -301 69 -356 86 -11 3 -37 -23 -82 -81 -37 -47 -67 -87 -67 -89 0 -2 39
-35 88 -73 105 -83 463 -363 478 -375 10 -7 114 111 114 130 0 5 -79 71 -175
147 -97 76 -174 139 -172 142 3 2 71 -13 152 -34 l148 -37 38 44 c22 25 39 51
39 58 0 7 -32 71 -71 143 -39 71 -70 132 -67 134 2 2 84 -59 182 -135 99 -77
180 -140 182 -140 1 0 28 32 59 72 53 69 55 73 38 89 -19 18 -531 421 -549
431 -6 4 -35 -23 -67 -62z"/>
<path d="M14505 12423 c-168 -60 -285 -188 -302 -331 -14 -123 70 -287 195
-381 37 -28 73 -51 80 -51 20 0 143 91 139 103 -2 6 -27 19 -57 29 -117 40
-180 117 -180 221 0 45 6 63 33 103 84 124 252 172 345 97 58 -46 83 -100 89
-191 2 -42 6 -83 9 -90 3 -9 26 2 74 35 l71 48 -5 50 c-13 122 -134 291 -245
343 -73 34 -176 40 -246 15z"/>
<path d="M5520 11813 c-85 -152 -155 -279 -154 -282 1 -7 106 -71 116 -71 4 0
30 43 59 95 29 52 57 95 62 95 6 0 60 -29 121 -64 299 -171 389 -217 398 -204
32 50 79 140 76 149 -2 5 -113 72 -248 148 -196 111 -245 142 -243 158 1 10
22 55 47 99 25 43 46 82 46 86 0 6 -108 68 -119 68 -3 0 -76 -125 -161 -277z"/>
<path d="M15159 11436 c-125 -45 -158 -133 -124 -341 20 -124 16 -160 -20
-177 -34 -15 -63 1 -98 57 -50 78 -65 195 -40 316 7 37 0 37 -94 -3 l-76 -31
6 -78 c10 -121 67 -270 134 -348 50 -59 111 -92 180 -98 50 -4 66 0 113 24
105 54 125 139 86 355 -17 91 -17 100 -2 123 34 52 97 21 137 -67 21 -46 24
-68 24 -166 0 -61 3 -112 6 -112 10 0 134 52 145 61 15 13 -2 139 -31 222 -48
138 -123 229 -215 262 -51 18 -83 18 -131 1z"/>
<path d="M5291 11242 c-61 -42 -88 -88 -167 -292 -39 -102 -71 -186 -70 -187
9 -11 682 -261 687 -256 4 5 21 43 37 86 l30 77 -26 13 c-15 8 -67 29 -117 47
-49 18 -94 36 -98 40 -4 4 -1 25 8 46 l15 39 161 45 161 45 40 104 c21 57 37
105 35 107 -2 2 -84 -21 -183 -51 -98 -30 -182 -55 -185 -55 -4 0 -9 17 -12
38 -23 142 -202 230 -316 154z m138 -187 c42 -21 57 -67 43 -122 -7 -24 -19
-60 -27 -78 l-14 -35 -63 24 c-112 43 -118 45 -118 51 0 19 54 133 72 152 25
27 66 30 107 8z"/>
<path d="M14955 10519 c13 -50 25 -92 27 -93 1 -2 37 -7 78 -12 l74 -9 28
-120 c15 -66 28 -125 28 -131 0 -7 -30 -30 -66 -53 -49 -31 -64 -45 -60 -59 3
-9 13 -51 22 -92 9 -41 17 -76 19 -78 2 -2 633 407 653 424 6 4 -40 198 -49
208 -5 5 -55 15 -111 23 -385 49 -649 83 -657 83 -5 0 1 -41 14 -91z m503
-145 c39 -4 72 -10 72 -14 0 -9 -194 -130 -208 -130 -5 0 -15 26 -21 58 -6 31
-14 68 -18 81 -6 24 -5 24 48 18 30 -4 87 -10 127 -13z"/>
<path d="M5278 10317 l-357 -71 -11 -65 c-6 -36 -14 -86 -16 -111 l-5 -45 336
-189 c185 -104 340 -185 344 -180 8 9 35 174 29 179 -2 1 -25 14 -53 28 -90
46 -86 34 -61 182 l22 130 76 13 77 14 10 51 c5 29 13 71 16 95 7 41 6 42 -22
41 -15 -1 -189 -33 -385 -72z m82 -178 c0 -18 -22 -154 -26 -158 -3 -4 -214
106 -227 118 -4 5 45 17 110 28 146 26 143 25 143 12z"/>
<path d="M15462 9800 c-183 -15 -335 -30 -337 -32 -5 -5 10 -176 15 -181 3 -3
72 1 153 7 82 6 150 9 152 6 2 -3 9 -72 16 -153 l12 -147 61 0 c34 0 66 4 72
8 8 5 8 46 -1 157 -7 83 -12 151 -11 151 0 1 30 3 66 5 l65 4 15 -165 15 -165
65 4 c36 1 67 4 70 6 3 2 -4 120 -15 262 l-20 258 -30 2 c-16 0 -180 -11 -363
-27z"/>
<path d="M4950 9584 c-110 -48 -140 -135 -140 -408 l0 -174 213 -7 c116 -3
282 -5 367 -3 l155 3 0 90 0 90 -116 3 -116 3 -5 108 c-4 92 -8 117 -32 164
-31 65 -89 119 -145 135 -53 16 -139 14 -181 -4z m175 -206 c14 -13 30 -41 35
-63 12 -51 13 -122 1 -129 -4 -3 -54 -3 -110 1 l-101 6 0 51 c0 69 16 122 43
141 33 23 101 19 132 -7z"/>
<path d="M15156 8966 c-3 -82 -6 -202 -6 -268 l0 -118 69 0 c54 0 70 4 75 16
3 9 6 85 6 170 l0 154 91 0 92 0 -4 -157 -4 -158 73 -3 72 -3 0 161 0 161 63
-3 62 -3 0 -170 0 -170 70 0 70 0 0 265 0 265 -361 5 -361 5 -7 -149z"/>
<path d="M5465 8817 c-33 -5 -61 -10 -63 -11 -1 -2 7 -76 19 -165 12 -89 19
-165 16 -168 -8 -7 -166 -28 -171 -22 -2 2 -12 68 -22 147 -10 78 -21 147 -24
152 -5 9 -126 -3 -136 -13 -3 -2 4 -71 15 -153 11 -82 17 -152 13 -155 -4 -4
-30 -9 -59 -13 -62 -8 -55 -22 -79 171 -10 78 -20 147 -24 153 -5 8 -127 -4
-137 -14 -3 -3 65 -517 69 -521 5 -4 719 92 724 98 8 8 -61 507 -72 515 -5 5
-36 4 -69 -1z"/>
<path d="M15711 8386 c-5 -6 -14 -52 -21 -102 -7 -51 -16 -97 -19 -103 -5 -8
-80 1 -250 29 -133 22 -263 41 -289 43 l-46 2 -14 -88 c-7 -49 -12 -90 -10
-91 2 -2 130 -23 286 -48 156 -26 285 -48 288 -51 2 -2 -3 -52 -13 -110 -9
-59 -15 -109 -12 -111 5 -5 132 -27 135 -23 8 8 102 633 96 638 -15 14 -122
26 -131 15z"/>
<path d="M5308 8050 c-77 -13 -163 -58 -213 -111 -69 -74 -89 -126 -89 -234
-1 -78 6 -113 48 -263 40 -139 53 -173 65 -169 228 62 691 205 691 214 0 26
-94 322 -117 366 -54 107 -143 175 -258 196 -64 12 -60 12 -127 1z m192 -210
c21 -11 48 -33 60 -50 19 -27 74 -170 65 -170 -2 0 -95 -27 -207 -60 -112 -33
-210 -60 -219 -60 -12 0 -21 19 -34 70 -35 142 10 228 144 276 56 20 145 17
191 -6z"/>
<path d="M15427 7533 l-258 -54 -130 45 c-93 33 -131 42 -134 33 -29 -78 -54
-161 -50 -167 3 -5 62 -27 131 -50 l125 -42 167 -199 c91 -109 169 -199 173
-199 4 0 22 43 39 95 l32 96 -107 115 c-59 63 -106 116 -104 119 2 2 74 16
160 31 l156 27 32 99 c18 55 31 101 29 102 -1 1 -119 -22 -261 -51z"/>
<path d="M14692 7135 c-15 -57 -16 -146 0 -179 16 -36 51 -56 107 -63 45 -5
50 -3 67 22 11 17 20 53 22 89 4 55 1 65 -22 93 -26 31 -87 66 -136 78 -23 6
-27 2 -38 -40z"/>
<path d="M15064 7138 c-102 -108 -177 -237 -177 -303 0 -45 17 -85 37 -85 22
0 127 120 148 169 27 64 38 137 30 199 l-7 53 -31 -33z"/>
<path d="M6063 7010 c-82 -38 -105 -74 -101 -151 5 -76 28 -109 74 -109 87 0
134 49 134 139 0 66 -19 151 -33 151 -7 0 -40 -13 -74 -30z"/>
<path d="M5745 6978 c-15 -117 28 -229 122 -322 31 -31 60 -56 63 -56 11 0 28
43 33 80 9 66 -50 172 -167 305 l-44 50 -7 -57z"/>
<path d="M14621 6784 c5 -110 25 -145 93 -164 67 -18 112 -7 125 32 17 48 13
107 -8 137 -25 35 -93 68 -160 77 l-53 7 3 -89z"/>
<path d="M15044 6773 c-98 -96 -155 -172 -158 -208 0 -13 -4 -21 -7 -19 -11 6
-20 -62 -13 -90 3 -14 8 -26 11 -26 3 0 27 16 54 36 68 50 124 116 158 188 29
62 57 173 49 196 -2 7 -44 -28 -94 -77z"/>
<path d="M6135 6716 c-98 -31 -135 -68 -135 -134 0 -93 28 -119 116 -109 81 9
114 61 114 182 l0 75 -27 -1 c-16 0 -46 -6 -68 -13z"/>
<path d="M5710 6700 c0 -47 31 -153 60 -209 33 -62 104 -140 163 -179 44 -29
57 -21 57 33 0 64 -55 151 -170 268 -94 96 -110 108 -110 87z"/>
<path d="M14647 6509 c-45 -135 -33 -212 38 -239 52 -20 70 -13 98 38 55 102
45 166 -36 237 -28 25 -57 45 -63 45 -6 0 -23 -36 -37 -81z"/>
<path d="M15090 6500 c-14 -10 -64 -43 -112 -74 -128 -83 -223 -195 -243 -287
l-7 -29 39 17 c137 63 232 156 322 316 37 67 37 82 1 57z"/>
<path d="M6118 6417 c-57 -43 -91 -109 -83 -160 6 -39 47 -131 63 -141 16 -10
84 15 108 39 19 19 24 35 24 77 0 54 -45 218 -60 218 -5 0 -28 -15 -52 -33z"/>
<path d="M5740 6339 c91 -178 205 -296 343 -354 l39 -16 -7 33 c-23 103 -125
214 -290 313 -27 17 -63 39 -79 50 l-28 19 22 -45z"/>
<path d="M14528 6236 c-50 -85 -78 -162 -78 -214 0 -37 6 -50 35 -79 35 -35
36 -35 55 -18 11 10 37 43 57 73 30 46 37 66 40 121 4 58 1 73 -24 121 -15 30
-32 55 -38 57 -5 1 -27 -26 -47 -61z"/>
<path d="M14920 6147 c-164 -56 -262 -122 -342 -230 -39 -52 -39 -52 -15 -55
36 -5 144 35 203 74 63 42 181 149 224 205 18 21 30 39 28 39 -1 0 -46 -15
-98 -33z"/>
<path d="M6243 6113 c-24 -41 -28 -59 -28 -118 1 -77 20 -126 76 -189 26 -30
33 -34 53 -25 57 26 70 106 33 199 -29 72 -88 180 -98 180 -4 0 -21 -21 -36
-47z"/>
<path d="M5849 6012 c28 -39 148 -154 206 -197 64 -48 147 -85 209 -92 l49 -6
-31 45 c-39 57 -128 138 -189 173 -26 15 -97 45 -156 66 l-108 38 20 -27z"/>
<path d="M14321 5916 c-69 -106 -94 -162 -99 -222 -4 -46 -1 -55 26 -84 l29
-34 41 45 c90 97 119 196 88 302 -9 31 -21 59 -26 62 -5 3 -32 -28 -59 -69z"/>
<path d="M14770 5878 c-136 -39 -171 -52 -220 -80 -54 -30 -190 -158 -190
-178 0 -16 52 -12 123 10 83 26 196 100 289 189 76 73 75 81 -2 59z"/>
<path d="M6454 5814 c-9 -21 -19 -67 -22 -102 -4 -55 -1 -69 27 -125 17 -34
49 -82 71 -107 l40 -45 31 34 c29 32 31 38 26 88 -7 62 -31 117 -94 211 -63
92 -60 91 -79 46z"/>
<path d="M14078 5696 c-98 -114 -133 -181 -133 -257 0 -39 5 -63 15 -73 14
-14 20 -11 64 31 63 61 105 124 123 182 13 43 20 187 10 198 -3 2 -38 -34 -79
-81z"/>
<path d="M6011 5743 c1 -15 164 -154 225 -193 34 -21 89 -48 123 -60 62 -20
131 -27 131 -11 0 4 -31 40 -68 78 -93 96 -189 143 -384 187 -16 4 -28 3 -27
-1z"/>
<path d="M6686 5594 c-14 -112 31 -230 126 -324 34 -33 64 -60 69 -60 11 0 29
59 29 97 0 61 -63 166 -177 293 l-40 44 -7 -50z"/>
<path d="M14425 5580 c-75 -9 -163 -40 -223 -79 -62 -40 -135 -112 -124 -123
15 -15 104 -11 157 7 80 27 192 95 305 185 l25 20 -40 -2 c-22 0 -67 -4 -100
-8z"/>
<path d="M13814 5496 c-97 -81 -176 -170 -202 -229 -16 -37 -16 -107 1 -107 6
0 43 23 80 51 73 55 130 123 170 204 27 55 61 154 55 160 -2 2 -49 -34 -104
-79z"/>
<path d="M6300 5442 c0 -19 211 -159 286 -188 68 -28 172 -39 190 -21 22 21
-135 140 -235 178 -48 18 -241 43 -241 31z"/>
<path d="M6930 5433 c0 -16 41 -128 68 -183 30 -63 145 -182 210 -218 l42 -23
0 43 c0 64 -44 142 -125 223 -76 75 -195 172 -195 158z"/>
<path d="M13518 5300 c-42 -15 -105 -43 -140 -62 -74 -39 -184 -139 -216 -197
l-23 -41 25 0 c37 0 134 38 186 73 68 45 277 261 248 257 -2 -1 -38 -14 -80
-30z"/>
<path d="M14002 5319 c-29 -5 -77 -21 -106 -35 -62 -30 -151 -96 -150 -109 3
-23 51 -36 114 -32 72 5 151 36 284 114 71 42 77 48 55 53 -49 13 -145 18
-197 9z"/>
<path d="M7250 5180 c0 -4 43 -53 95 -108 130 -137 222 -195 340 -217 39 -7
39 -6 22 12 -9 11 -17 24 -17 30 0 21 -120 140 -178 176 -64 40 -262 121 -262
107z"/>
<path d="M6655 5172 l-30 -7 60 -37 c151 -92 288 -144 344 -132 43 9 82 26 79
34 -7 19 -95 82 -156 112 -60 30 -75 33 -167 35 -55 1 -113 -2 -130 -5z"/>
<path d="M13545 5102 c-39 -15 -109 -50 -133 -68 -2 -1 -1 -12 3 -24 17 -52
115 -75 210 -49 76 21 205 71 205 79 0 5 -24 23 -52 41 -68 41 -157 49 -233
21z"/>
<path d="M7150 4970 c-40 -10 -130 -58 -130 -70 0 -10 62 -35 160 -66 99 -31
176 -32 221 -1 51 34 44 55 -26 92 -108 55 -147 63 -225 45z"/>
<path d="M13175 4946 c-45 -14 -125 -54 -125 -62 0 -21 35 -64 62 -75 59 -25
196 -7 327 42 23 9 23 10 5 30 -11 12 -41 34 -69 50 -56 32 -128 38 -200 15z"/>
<path d="M12529 4901 c-61 -20 -153 -77 -185 -116 -87 -106 -84 -245 6 -348
50 -56 94 -77 162 -77 71 0 166 46 210 101 17 21 35 39 40 39 4 0 8 -26 8 -57
0 -90 -43 -148 -142 -193 -24 -11 -55 -20 -70 -20 -18 0 -28 -5 -28 -15 0 -24
53 -125 66 -125 7 0 53 20 103 45 168 85 244 188 243 334 -1 152 -95 337 -206
405 -39 25 -61 31 -115 33 -36 1 -78 -2 -92 -6z m70 -146 c34 -17 75 -64 101
-115 l20 -38 -35 -31 c-19 -16 -53 -36 -76 -42 -37 -11 -46 -11 -77 7 -88 48
-99 184 -17 220 39 17 50 17 84 -1z"/>
<path d="M7507 4805 c-47 -18 -121 -75 -110 -85 14 -14 166 -58 224 -65 70 -9
132 7 158 42 12 14 21 31 21 37 0 15 -95 63 -150 75 -60 14 -97 13 -143 -4z"/>
<path d="M8320 4717 c0 -2 -52 -155 -115 -341 -63 -186 -113 -342 -110 -346 9
-14 303 -108 370 -118 206 -33 381 100 416 317 24 149 -47 283 -189 359 -80
43 -372 144 -372 129z m240 -223 c68 -31 88 -49 111 -99 23 -49 24 -118 4
-176 -38 -106 -102 -159 -193 -159 -46 0 -137 24 -156 40 -6 7 112 390 131
423 6 10 32 2 103 -29z"/>
<path d="M11935 4625 c-59 -19 -70 -26 -67 -44 6 -38 -25 -78 -83 -107 -34
-16 -54 -32 -51 -39 2 -7 10 -31 17 -54 7 -23 17 -41 24 -41 6 0 39 9 74 21
34 12 64 20 65 18 12 -14 116 -351 111 -359 -3 -5 -29 -17 -58 -25 -79 -23
-80 -24 -61 -81 9 -27 20 -53 24 -58 8 -8 436 128 454 145 11 10 -20 119 -34
119 -4 0 -37 -9 -71 -20 -35 -10 -65 -18 -66 -16 -2 2 -45 129 -96 282 -52
153 -98 279 -103 280 -5 2 -40 -8 -79 -21z"/>
<path d="M9015 4478 c-5 -15 -24 -100 -25 -110 0 -4 20 -10 43 -13 77 -12 76
0 22 -240 -27 -119 -52 -220 -55 -225 -4 -6 -19 -6 -40 0 -69 20 -76 16 -93
-50 -13 -54 -13 -60 2 -65 9 -2 103 -24 209 -49 219 -50 201 -53 217 41 l7 42
-39 10 c-21 6 -43 11 -50 11 -6 0 -14 4 -17 9 -6 8 90 440 99 450 3 2 28 -1
57 -7 29 -5 54 -9 56 -7 5 4 31 119 28 122 -3 4 -395 93 -407 93 -5 0 -12 -6
-14 -12z"/>
<path d="M11298 4443 c-48 -13 -58 -19 -58 -37 0 -12 -7 -32 -16 -44 -16 -24
-83 -62 -108 -62 -23 0 -25 -11 -14 -68 12 -58 12 -58 100 -40 31 7 60 10 62
7 9 -9 88 -360 83 -365 -3 -3 -35 -12 -71 -21 -72 -16 -72 -15 -55 -92 9 -45
13 -50 32 -46 12 3 118 28 236 55 118 27 216 52 218 53 5 6 -18 111 -26 119
-3 3 -37 -2 -74 -12 -49 -13 -70 -15 -73 -6 -2 6 -31 128 -64 271 -33 143 -62
270 -65 283 -6 26 -24 27 -107 5z"/>
<path d="M9655 4337 c-6 -14 -77 -172 -159 -351 -82 -179 -147 -328 -145 -330
2 -2 45 -7 94 -11 l90 -7 32 72 32 72 88 -6 c48 -4 109 -9 135 -12 l46 -6 17
-70 c14 -54 22 -71 40 -78 26 -10 162 -16 171 -8 4 5 -201 736 -210 745 -1 2
-52 6 -112 10 l-109 6 -10 -26z m142 -307 c17 -65 28 -121 26 -124 -5 -5 -155
4 -162 10 -5 5 93 234 100 234 4 0 20 -54 36 -120z"/>
<path d="M10196 4038 c4 -161 9 -326 13 -367 l6 -74 249 2 c136 1 255 5 263 8
10 4 13 21 11 72 l-3 66 -166 -3 -166 -4 -6 54 c-4 29 -7 132 -7 228 0 96 -3
205 -7 243 l-6 67 -94 0 -93 0 6 -292z"/>
</g>
</svg>
